# V 0.13

mtllib soupdoorwall039.mtl

o soupdoorwall039_high_1

usemtl soupdoorwall039_0

v -0.07522250 -1.47287500 -0.6476011
v 0.07522250 0.81515940 -0.647601
v 0.07522250 -1.47287500 0.6160003
v 0.07522250 -1.47287500 1.351296
v 0.07522250 -1.47287500 1.351296
v 0.07522250 1.47287500 -1.351295
v 0.07522250 1.47287500 -1.351295
v 0.07522250 1.47287500 -1.351295
v 0.07522250 0.81515940 -0.647601
v 0.07522250 0.81515940 -0.647601
v 0.07522250 0.81515940 -0.647601
v 0.07522250 -1.47287500 -0.6476011
v -0.07522250 -1.47287500 -1.351296
v -0.07522250 -1.47287500 -1.351296
v -0.07522250 -1.47287500 1.351296
v -0.07522250 -1.47287500 0.6160003
v -0.07522250 -1.47287500 0.6160003
v -0.07522250 -1.47287500 0.6160003
v -0.07522250 -1.47287500 1.351296
v -0.07522250 -1.47287500 1.351296
v -0.07522250 1.47287500 -1.351295
v -0.07522250 1.47287400 1.351296
v 0.07522250 -1.47287500 -1.351296
v -0.07522250 1.47287400 1.351296
v -0.07522250 1.47287400 1.351296
v -0.07522250 1.47287400 1.351296
v -0.07522250 1.47287400 1.351296
v 0.07522250 -1.47287500 -1.351296
v -0.07522250 0.81515940 0.6160004
v -0.07522250 0.81515940 0.6160004
v -0.07522250 0.81515940 0.6160004
v 0.07522250 1.47287400 1.351296
v 0.07522250 1.47287400 1.351296
v 0.07522250 -1.47287500 -1.351296
v 0.07522250 -1.47287500 -1.351296
v -0.07522250 -1.47287500 -1.351296
v -0.07522250 -1.47287500 -1.351296
v -0.07522250 1.47287500 -1.351295
v 0.07522250 0.81515940 0.6160004
v 0.07522250 0.81515940 0.6160004
v 0.07522250 0.81515940 0.6160004
v 0.07522250 0.81515940 0.6160004
v -0.07522250 1.47287500 -1.351295
v -0.07522250 1.47287500 -1.351295
v -0.07522250 1.47287400 1.351296
v -0.07522250 0.81515940 -0.647601
v -0.07522250 0.81515940 -0.647601
v -0.07522250 0.81515940 -0.647601
v -0.07522250 0.81515940 -0.647601
v 0.07522250 -1.47287500 1.351296
v 0.07522250 -1.47287500 1.351296
v 0.07522250 -1.47287500 0.6160003
v -0.07522250 -1.47287500 -1.351296
v -0.07522250 -1.47287500 -1.351296
v -0.07522250 -1.47287500 -0.6476011
v -0.07522250 1.47287400 1.351296
v 0.07522250 1.47287500 -1.351295
v 0.07522250 1.47287500 -1.351295
v 0.07522250 -1.47287500 -0.6476011
v 0.07522250 -1.47287500 -0.6476011
v -0.07522250 0.81515940 -0.647601
v -0.07522250 -1.47287500 -0.6476011
v -0.07522250 -1.47287500 -0.6476011
v 0.07522250 -1.47287500 -0.6476011
v 0.07522250 0.81515940 -0.647601
v 0.07522250 0.81515940 -0.647601
v -0.07522250 0.81515940 0.6160004
v 0.07522250 0.81515940 0.6160004
v 0.07522250 -1.47287500 0.6160003
v 0.07522250 -1.47287500 0.6160003
v -0.07522250 -1.47287500 0.6160003
v -0.07522250 0.81515940 0.6160004
v -0.07522250 0.81515940 0.6160004
v 0.07522250 0.81515940 0.6160004
v 0.07522250 0.81515940 0.6160004
v 0.07522250 1.47287400 1.351296
v 0.07522250 1.47287500 -1.351295
v -0.07522250 0.81515940 -0.647601
v 0.07522250 1.47287500 -1.351295
v -0.07522250 -1.47287500 1.351296
v 0.07522250 -1.47287500 1.351296
v 0.07522250 -1.47287500 1.351296
v 0.07522250 1.47287400 1.351296
v -0.07522250 0.81515940 -0.647601

vn 0.00000000 -1.00000000 -0.0
vn 0.00000000 -1.00000000 -0.0
vn 0.00000000 -1.00000000 -0.0
vn 0.00000000 -1.00000000 -0.0
vn 0.00000000 -1.00000000 -0.0
vn 1.00000000 0.00000000 -0.0
vn 1.00000000 0.00000000 -0.0
vn 1.00000000 0.00000000 -0.0
vn 1.00000000 0.00000000 -0.0
vn 1.00000000 0.00000000 -0.0
vn 1.00000000 0.00000000 -0.0
vn 1.00000000 0.00000000 -0.0
vn 0.00000000 -1.00000000 -0.0
vn 0.00000000 -1.00000000 -0.0
vn 0.00000000 -1.00000000 -0.0
vn 0.00000000 -1.00000000 -0.0
vn 0.00000000 -1.00000000 -0.0
vn -1.00000000 0.00000000 -0.0
vn -1.00000000 0.00000000 -0.0
vn -1.00000000 0.00000000 -0.0
vn 0.00000000 1.00000000 -0.0
vn 0.00000000 1.00000000 -0.0
vn 1.00000000 0.00000000 -0.0
vn 0.00000000 1.00000000 -0.0
vn -1.00000000 0.00000000 -0.0
vn -1.00000000 0.00000000 -0.0
vn -1.00000000 0.00000000 -0.0
vn 0.00000000 0.00000000 -1.0
vn -1.00000000 0.00000000 -0.0
vn -1.00000000 0.00000000 -0.0
vn -1.00000000 0.00000000 -0.0
vn 1.00000000 0.00000000 -0.0
vn 1.00000000 0.00000000 -0.0
vn 1.00000000 0.00000000 -0.0
vn 0.00000000 -1.00000000 -0.0
vn 0.00000000 0.00000000 -1.0
vn 0.00000000 0.00000000 -1.0
vn 0.00000000 0.00000000 -1.0
vn 1.00000000 0.00000000 -0.0
vn 1.00000000 0.00000000 -0.0
vn 1.00000000 0.00000000 -0.0
vn 1.00000000 0.00000000 -0.0
vn -1.00000000 0.00000000 -0.0
vn -1.00000000 0.00000000 -0.0
vn 0.00000000 0.00000000 1.0
vn -1.00000000 0.00000000 -0.0
vn -1.00000000 0.00000000 -0.0
vn -1.00000000 0.00000000 -0.0
vn -1.00000000 0.00000000 -0.0
vn 1.00000000 0.00000000 -0.0
vn 1.00000000 0.00000000 -0.0
vn 1.00000000 0.00000000 -0.0
vn -1.00000000 0.00000000 -0.0
vn -1.00000000 0.00000000 -0.0
vn -1.00000000 0.00000000 -0.0
vn 0.00000000 0.00000000 1.0
vn 0.00000000 0.00000000 -1.0
vn 0.00000000 0.00000000 -1.0
vn 0.00000000 -1.00000000 -0.0
vn 0.00000000 -1.00000000 -0.0
vn 0.00000000 0.00000000 1.0
vn 0.00000000 0.00000000 1.0
vn 0.00000000 0.00000000 1.0
vn 0.00000000 0.00000000 1.0
vn 0.00000000 0.00000000 1.0
vn 0.00000000 0.00000000 1.0
vn 0.00000000 -1.00000000 -0.0
vn 0.00000000 0.00000000 -1.0
vn 0.00000000 0.00000000 -1.0
vn 0.00000000 0.00000000 -1.0
vn 0.00000000 0.00000000 -1.0
vn 0.00000000 0.00000000 -1.0
vn 0.00000000 0.00000000 -1.0
vn 0.00000000 -1.00000000 -0.0
vn 0.00000000 -1.00000000 -0.0
vn 0.00000000 1.00000000 -0.0
vn 0.00000000 1.00000000 -0.0
vn 0.00000000 -1.00000000 -0.0
vn 0.00000000 1.00000000 -0.0
vn 0.00000000 0.00000000 1.0
vn 0.00000000 0.00000000 1.0
vn 0.00000000 0.00000000 1.0
vn 0.00000000 0.00000000 1.0
vn 0.00000000 -1.00000000 -0.0

vt 0.52553950 1.7198731999999999
vt 0.47446040 1.7198731
vt 0.47446050 1.2908559
vt 0.47446060 1.0412089
vt 0.47446060 1.0412089
vt 0.95879100 2.000069
vt 0.95879100 2.000069
vt 0.95879100 2.000069
vt 0.71987310 1.7767625
vt 0.71987310 1.7767625
vt 0.71987310 1.7767625
vt 0.71987320 0.9999305
vt 0.52553940 1.958791
vt 0.52553940 1.958791
vt 0.52553960 1.0412089
vt 0.52553950 1.2908559
vt 0.52553950 1.2908559
vt 0.70914410 0.9999305
vt 0.95879100 0.9999305
vt 0.95879100 0.9999305
vt 0.47446060 1.958791
vt 0.47446040 1.0412089
vt 0.95879100 0.9999305
vt 0.47446040 1.0412089
vt 0.95879100 2.000069
vt 0.95879100 2.000069
vt 0.95879100 2.000069
vt 0.47446040 0.9999305
vt 0.70914410 1.7767625
vt 0.70914410 1.7767625
vt 0.70914410 1.7767625
vt 0.04120890 2.000069
vt 0.04120890 2.000069
vt 0.95879100 0.9999305
vt 0.47446040 1.958791
vt 0.52553940 0.9999305
vt 0.52553940 0.9999305
vt 0.52553940 2.000069
vt 0.29085590 1.7767625
vt 0.29085590 1.7767625
vt 0.29085590 1.7767625
vt 0.29085590 1.7767625
vt 0.04120890 2.000069
vt 0.04120890 2.000069
vt 0.47446040 2.000069
vt 0.28012690 1.7767625
vt 0.28012690 1.7767625
vt 0.28012690 1.7767625
vt 0.28012690 1.7767625
vt 0.04120890 0.9999305
vt 0.04120890 0.9999305
vt 0.29085590 0.9999305
vt 0.04120890 0.9999305
vt 0.04120890 0.9999305
vt 0.28012680 0.9999305
vt 0.47446040 2.000069
vt 0.47446040 2.000069
vt 0.47446040 2.000069
vt 0.47446040 1.7198731999999999
vt 0.47446040 1.7198731999999999
vt 0.47446050 1.7767625
vt 0.47446050 0.9999305
vt 0.47446050 0.9999305
vt 0.52553960 0.9999305
vt 0.52553960 1.7767625
vt 0.52553960 1.7767625
vt 0.52553950 1.2908559
vt 0.47446050 1.7767625
vt 0.47446050 0.9999305
vt 0.47446050 0.9999305
vt 0.52553950 0.9999305
vt 0.52553950 1.7767625
vt 0.52553950 1.7767625
vt 0.47446050 1.2908559
vt 0.47446050 1.2908559
vt 0.52553940 1.0412089
vt 0.52553960 1.958791
vt 0.52553950 1.7198731
vt 0.52553960 1.958791
vt 0.47446040 0.9999305
vt 0.52553940 0.9999305
vt 0.52553940 0.9999305
vt 0.52553940 2.000069
vt 0.52553950 1.7198731

f 77/77/77 21/21/21 24/24/24 
f 22/22/22 76/76/76 79/79/79 
f 81/81/81 83/83/83 56/56/56 
f 45/45/45 80/80/80 82/82/82 
f 37/37/37 38/38/38 58/58/58 
f 57/57/57 28/28/28 36/36/36 
f 14/14/14 35/35/35 60/60/60 
f 59/59/59 1/1/1 13/13/13 
f 5/5/5 15/15/15 17/17/17 
f 16/16/16 3/3/3 4/4/4 
f 34/34/34 7/7/7 10/10/10 
f 11/11/11 12/12/12 23/23/23 
f 20/20/20 26/26/26 30/30/30 
f 31/31/31 18/18/18 19/19/19 
f 8/8/8 33/33/33 40/40/40 
f 41/41/41 9/9/9 6/6/6 
f 27/27/27 44/44/44 47/47/47 
f 48/48/48 29/29/29 25/25/25 
f 51/51/51 52/52/52 42/42/42 
f 39/39/39 32/32/32 50/50/50 
f 54/54/54 55/55/55 49/49/49 
f 46/46/46 43/43/43 53/53/53 
f 63/63/63 64/64/64 66/66/66 
f 65/65/65 61/61/61 62/62/62 
f 84/84/84 2/2/2 75/75/75 
f 74/74/74 67/67/67 78/78/78 
f 70/70/70 71/71/71 73/73/73 
f 72/72/72 68/68/68 69/69/69 

