# V 0.13

mtllib soupwindwall017.mtl

o soupwindwall017_high_1

usemtl soupwindwall017_0

v -0.07522250 -1.47287500 1.351296
v 0.07522250 -0.46889680 0.7490279
v 0.07522250 -0.46889680 -0.7490278
v 0.07522250 -0.46889680 -0.7490278
v 0.07522250 -1.47287500 -1.351296
v 0.07522250 1.47287400 1.351296
v 0.07522250 1.47287400 1.351296
v 0.07522250 1.47287400 1.351296
v 0.07522250 1.47287400 1.351296
v 0.07522250 -1.47287500 1.351296
v 0.07522250 -1.47287500 1.351296
v -0.07522250 0.73051750 -0.7490277
v -0.07522250 -1.47287500 -1.351296
v -0.07522250 -1.47287500 -1.351296
v 0.07522250 0.73051750 0.749028
v 0.07522250 0.73051750 0.749028
v -0.07522250 1.47287500 -1.351295
v 0.07522250 0.73051750 -0.7490277
v 0.07522250 0.73051750 -0.7490277
v 0.07522250 0.73051750 -0.7490277
v 0.07522250 0.73051750 -0.7490277
v -0.07522250 1.47287400 1.351296
v -0.07522250 0.73051750 -0.7490277
v -0.07522250 1.47287400 1.351296
v 0.07522250 -1.47287500 1.351296
v 0.07522250 -1.47287500 1.351296
v 0.07522250 -1.47287500 -1.351296
v 0.07522250 -1.47287500 -1.351296
v 0.07522250 -1.47287500 -1.351296
v 0.07522250 -1.47287500 -1.351296
v 0.07522250 -0.46889680 -0.7490278
v 0.07522250 -0.46889680 -0.7490278
v 0.07522250 -0.46889680 0.7490279
v -0.07522250 -0.46889680 -0.7490278
v 0.07522250 -0.46889680 0.7490279
v 0.07522250 -0.46889680 0.7490279
v 0.07522250 -0.46889680 0.7490279
v -0.07522250 1.47287400 1.351296
v -0.07522250 1.47287400 1.351296
v -0.07522250 1.47287500 -1.351295
v -0.07522250 1.47287500 -1.351295
v -0.07522250 1.47287500 -1.351295
v -0.07522250 1.47287500 -1.351295
v 0.07522250 1.47287400 1.351296
v -0.07522250 -0.46889700 0.7490279
v -0.07522250 0.73051750 -0.7490277
v -0.07522250 0.73051750 -0.7490277
v -0.07522250 0.73051730 0.749028
v -0.07522250 0.73051730 0.749028
v -0.07522250 0.73051730 0.749028
v -0.07522250 0.73051730 0.749028
v -0.07522250 -1.47287500 -1.351296
v -0.07522250 -1.47287500 -1.351296
v -0.07522250 -1.47287500 1.351296
v -0.07522250 -1.47287500 1.351296
v -0.07522250 -0.46889700 0.7490279
v -0.07522250 -1.47287500 1.351296
v -0.07522250 -1.47287500 1.351296
v -0.07522250 -0.46889700 0.7490279
v -0.07522250 -0.46889700 0.7490279
v -0.07522250 -0.46889680 -0.7490278
v -0.07522250 -0.46889680 -0.7490278
v -0.07522250 -0.46889680 -0.7490278
v -0.07522250 -0.46889680 -0.7490278
v -0.07522250 -1.47287500 1.351296
v -0.07522250 -1.47287500 1.351296
v 0.07522250 0.73051750 -0.7490277
v -0.07522250 -1.47287500 -1.351296
v -0.07522250 1.47287500 -1.351295
v -0.07522250 1.47287500 -1.351295
v 0.07522250 1.47287500 -1.351295
v 0.07522250 1.47287500 -1.351295
v 0.07522250 1.47287500 -1.351295
v 0.07522250 -1.47287500 -1.351296
v 0.07522250 -1.47287500 -1.351296
v -0.07522250 -0.46889700 0.7490279
v -0.07522250 0.73051730 0.749028
v 0.07522250 0.73051750 0.749028
v -0.07522250 0.73051730 0.749028
v 0.07522250 0.73051750 0.749028
v 0.07522250 -0.46889680 0.7490279
v 0.07522250 -0.46889680 0.7490279
v -0.07522250 0.73051750 -0.7490277
v -0.07522250 -0.46889680 -0.7490278
v -0.07522250 -0.46889680 -0.7490278
v 0.07522250 -0.46889680 -0.7490278
v 0.07522250 0.73051750 -0.7490277
v 0.07522250 0.73051750 -0.7490277
v 0.07522250 0.73051750 0.749028
v 0.07522250 -1.47287500 1.351296
v 0.07522250 1.47287400 1.351296
v 0.07522250 1.47287400 1.351296
v 0.07522250 1.47287500 -1.351295
v 0.07522250 1.47287500 -1.351295
v -0.07522250 1.47287400 1.351296
v -0.07522250 0.73051730 0.749028

vn 0.00000000 -1.00000000 -0.0
vn -0.00000150 1.00000000 -0.0
vn 0.00000000 1.00000000 -0.0
vn 0.00000000 1.00000000 -0.0
vn 0.00000000 -1.00000000 -0.0
vn 1.00000000 0.00000000 -0.0
vn 1.00000000 0.00000000 -0.0
vn 1.00000000 0.00000000 -0.0
vn 1.00000000 0.00000000 -0.0
vn 0.00000000 -1.00000000 -0.0
vn 0.00000000 -1.00000000 -0.0
vn 0.00000000 -1.00000000 -0.0
vn 0.00000000 -1.00000000 -0.0
vn 0.00000000 -1.00000000 -0.0
vn 1.00000000 0.00000000 -0.0
vn 1.00000000 0.00000000 -0.0
vn 0.00000000 1.00000000 -0.0
vn 1.00000000 0.00000000 -0.0
vn 1.00000000 0.00000000 -0.0
vn 1.00000000 0.00000000 -0.0
vn 1.00000000 0.00000000 -0.0
vn 0.00000000 1.00000000 -0.0
vn 0.00000000 -1.00000000 -0.0
vn 0.00000000 1.00000000 -0.0
vn 1.00000000 0.00000000 -0.0
vn 1.00000000 0.00000000 -0.0
vn 1.00000000 0.00000000 -0.0
vn 1.00000000 0.00000000 -0.0
vn 1.00000000 0.00000000 -0.0
vn 1.00000000 0.00000000 -0.0
vn 1.00000000 0.00000000 -0.0
vn 1.00000000 0.00000000 -0.0
vn 1.00000000 0.00000000 -0.0
vn 0.00000000 1.00000000 -0.0
vn 1.00000000 0.00000000 -0.0
vn 1.00000000 0.00000000 -0.0
vn 1.00000000 0.00000000 -0.0
vn -1.00000000 0.00000000 -0.0
vn -1.00000000 0.00000000 -0.0
vn -1.00000000 0.00000000 -0.0
vn -1.00000000 0.00000000 -0.0
vn -1.00000000 0.00000000 -0.0
vn -1.00000000 0.00000000 -0.0
vn 0.00000000 1.00000000 -0.0
vn -0.00000150 1.00000000 -0.0
vn -1.00000000 0.00000000 -0.0
vn -1.00000000 0.00000000 -0.0
vn -1.00000000 0.00000000 -0.0
vn -1.00000000 0.00000000 -0.0
vn -1.00000000 0.00000000 -0.0
vn -1.00000000 0.00000000 -0.0
vn -1.00000000 0.00000000 -0.0
vn -1.00000000 0.00000000 -0.0
vn -1.00000000 0.00000000 -0.0
vn -1.00000000 0.00000000 -0.0
vn -0.00000150 1.00000000 -0.0
vn -1.00000000 0.00000000 -0.0
vn -1.00000000 0.00000000 -0.0
vn -1.00000000 0.00000000 -0.0
vn -1.00000000 0.00000000 -0.0
vn -1.00000000 0.00000000 -0.0
vn -1.00000000 0.00000000 -0.0
vn -1.00000000 0.00000000 -0.0
vn -1.00000000 0.00000000 -0.0
vn 0.00000000 0.00000000 1.0
vn 0.00000000 0.00000000 1.0
vn 0.00000000 -1.00000000 -0.0
vn 0.00000000 0.00000000 -1.0
vn 0.00000000 0.00000000 -1.0
vn 0.00000000 0.00000000 -1.0
vn 0.00000000 0.00000000 -1.0
vn 0.00000000 1.00000000 -0.0
vn 0.00000000 1.00000000 -0.0
vn 0.00000000 0.00000000 -1.0
vn 0.00000000 0.00000000 -1.0
vn 0.00000000 0.00000000 -1.0
vn 0.00000000 0.00000000 -1.0
vn 0.00000150 -1.00000000 -0.0
vn 0.00000000 0.00000000 -1.0
vn 0.00000000 0.00000000 -1.0
vn 0.00000000 0.00000000 -1.0
vn 0.00000000 0.00000000 -1.0
vn 0.00000000 0.00000000 1.0
vn 0.00000000 0.00000000 1.0
vn 0.00000000 0.00000000 1.0
vn 0.00000000 0.00000000 1.0
vn 0.00000000 0.00000000 1.0
vn 0.00000000 0.00000000 1.0
vn 0.00000150 -1.00000000 -0.0
vn 0.00000000 0.00000000 1.0
vn 0.00000000 0.00000000 1.0
vn 0.00000000 0.00000000 1.0
vn 1.00000000 0.00000000 -0.0
vn 1.00000000 0.00000000 -0.0
vn 0.00000000 0.00000000 1.0
vn 0.00000150 -1.00000000 -0.0

vt 0.58938860 -0.105769
vt 0.58938800 0.6099167
vt 0.58938850 2.3900829999999997
vt 0.58938850 2.3900829999999997
vt 0.41061140 3.105769
vt -1.10576900 3.250243
vt -1.10576900 3.250243
vt -1.10576900 3.250243
vt -1.10576900 3.250243
vt 0.41061220 -0.105769
vt 0.41061220 -0.105769
vt 0.58938800 2.3900829999999997
vt 0.58938790 3.105769
vt 0.58938790 3.105769
vt -0.39008340 2.368087
vt -0.39008340 2.368087
vt 0.41061210 3.105769
vt 1.39008300 2.368087
vt 1.39008300 2.368087
vt 1.39008300 2.368087
vt 1.39008300 2.368087
vt 0.41061140 -0.105769
vt 0.58938800 2.3900829999999997
vt 0.41061140 -0.105769
vt -1.10576900 -0.250243
vt -1.10576900 -0.250243
vt 2.10576900 -0.250243
vt 2.10576900 -0.250243
vt 2.10576900 -0.250243
vt 2.10576900 -0.250243
vt 1.39008300 0.9428015
vt 1.39008300 0.9428015
vt -0.39008330 0.9428015
vt 0.41061200 2.3900829999999997
vt -0.39008330 0.9428015
vt -0.39008330 0.9428015
vt -0.39008330 0.9428015
vt 2.10576900 3.250243
vt 2.10576900 3.250243
vt -1.10576900 3.250243
vt -1.10576900 3.250243
vt -1.10576900 3.250243
vt -1.10576900 3.250243
vt 0.58938780 -0.105769
vt 0.41061150 0.6099167
vt -0.39008310 2.368087
vt -0.39008310 2.368087
vt 1.39008300 2.368087
vt 1.39008300 2.368087
vt 1.39008300 2.368087
vt 1.39008300 2.368087
vt -1.10576900 -0.250243
vt -1.10576900 -0.250243
vt 2.10576900 -0.250243
vt 2.10576900 -0.250243
vt 0.41061150 0.6099167
vt 2.10576900 -0.250243
vt 2.10576900 -0.250243
vt 1.39008300 0.9428012
vt 1.39008300 0.9428012
vt -0.39008330 0.9428015
vt -0.39008330 0.9428015
vt -0.39008330 0.9428015
vt -0.39008330 0.9428015
vt 0.41061140 -0.250243
vt 0.41061140 -0.250243
vt 0.41061150 2.3900829999999997
vt 0.58938790 -0.250243
vt 0.58938790 3.250243
vt 0.58938790 3.250243
vt 0.41061140 3.250243
vt 0.58938860 3.105769
vt 0.58938860 3.105769
vt 0.41061140 -0.250243
vt 0.41061140 -0.250243
vt 0.58938850 0.9428012
vt 0.58938850 2.368087
vt 0.41061200 0.6099166
vt 0.58938850 2.368087
vt 0.41061200 2.368087
vt 0.41061200 0.9428015
vt 0.41061200 0.9428015
vt 0.41061200 2.368087
vt 0.41061200 0.9428015
vt 0.41061200 0.9428015
vt 0.58938850 0.9428015
vt 0.58938850 2.368087
vt 0.58938850 2.368087
vt 0.41061200 0.6099166
vt 0.58938780 -0.250243
vt 0.58938780 3.250243
vt 0.58938780 3.250243
vt 2.10576900 3.250243
vt 2.10576900 3.250243
vt 0.41061140 3.250243
vt 0.58938850 0.6099166

f 14/14/14 5/5/5 11/11/11 
f 10/10/10 1/1/1 13/13/13 
f 73/73/73 17/17/17 24/24/24 
f 22/22/22 44/44/44 72/72/72 
f 91/91/91 95/95/95 66/66/66 
f 65/65/65 90/90/90 92/92/92 
f 70/70/70 71/71/71 75/75/75 
f 74/74/74 68/68/68 69/69/69 
f 7/7/7 16/16/16 19/19/19 
f 20/20/20 93/93/93 8/8/8 
f 28/28/28 32/32/32 35/35/35 
f 36/36/36 26/26/26 29/29/29 
f 41/41/41 47/47/47 49/49/49 
f 50/50/50 39/39/39 42/42/42 
f 55/55/55 60/60/60 62/62/62 
f 63/63/63 53/53/53 57/57/57 
f 9/9/9 25/25/25 37/37/37 
f 33/33/33 15/15/15 6/6/6 
f 30/30/30 94/94/94 21/21/21 
f 18/18/18 31/31/31 27/27/27 
f 43/43/43 52/52/52 64/64/64 
f 61/61/61 46/46/46 40/40/40 
f 58/58/58 38/38/38 51/51/51 
f 48/48/48 59/59/59 54/54/54 
f 56/56/56 2/2/2 4/4/4 
f 3/3/3 34/34/34 45/45/45 
f 79/79/79 80/80/80 82/82/82 
f 81/81/81 76/76/76 77/77/77 
f 85/85/85 86/86/86 88/88/88 
f 87/87/87 83/83/83 84/84/84 
f 23/23/23 67/67/67 89/89/89 
f 78/78/78 96/96/96 12/12/12 

