# V 0.13

mtllib souplongwall002.mtl

o souplongwall002_high_1

usemtl souplongwall002_0

v -0.07522250 -1.47287500 4.053887
v 0.07522250 -1.47287500 -4.053887
v 0.07522250 -1.47287500 -4.053887
v 0.07522250 -1.47287500 -4.053887
v 0.07522250 -1.47287500 -4.053887
v -0.07522250 -1.47287500 -4.053887
v 0.07522250 1.47287500 -4.053887
v -0.07522250 -1.47287500 -4.053887
v -0.07522250 -1.47287500 -4.053887
v -0.07522250 1.47287500 -4.053887
v -0.07522250 1.47287500 -4.053887
v 0.07522250 -1.47287500 4.053887
v -0.07522250 1.47287500 -1.351295
v -0.07522250 -1.47287500 1.351296
v -0.07522250 1.47287500 -4.053887
v -0.07522250 1.47287500 -4.053887
v -0.07522250 -1.47287500 4.053887
v -0.07522250 -1.47287500 4.053887
v -0.07522250 -1.47287500 1.351296
v -0.07522250 -1.47287500 1.351296
v -0.07522250 -1.47287500 1.351296
v -0.07522250 -1.47287500 -1.351295
v -0.07522250 1.47287400 4.053887
v -0.07522250 -1.47287500 -1.351295
v -0.07522250 -1.47287500 -1.351295
v -0.07522250 1.47287400 4.053887
v -0.07522250 -1.47287500 -4.053887
v 0.07522250 -1.47287500 -1.351295
v 0.07522250 -1.47287500 -1.351295
v 0.07522250 -1.47287500 -1.351295
v 0.07522250 -1.47287500 -4.053887
v 0.07522250 -1.47287500 1.351296
v 0.07522250 -1.47287500 1.351296
v 0.07522250 1.47287400 4.053887
v 0.07522250 -1.47287500 1.351296
v 0.07522250 -1.47287500 1.351296
v 0.07522250 -1.47287500 4.053887
v 0.07522250 1.47287400 1.351296
v 0.07522250 1.47287400 1.351296
v 0.07522250 1.47287400 1.351296
v 0.07522250 1.47287500 -1.351295
v 0.07522250 1.47287500 -1.351295
v 0.07522250 1.47287500 -1.351295
v 0.07522250 -1.47287500 1.351296
v 0.07522250 1.47287400 4.053887
v 0.07522250 -1.47287500 1.351296
v 0.07522250 -1.47287500 -1.351295
v 0.07522250 -1.47287500 -1.351295
v -0.07522250 1.47287500 -1.351295
v -0.07522250 1.47287500 -1.351295
v -0.07522250 1.47287500 -1.351295
v -0.07522250 1.47287400 1.351296
v -0.07522250 1.47287400 1.351296
v -0.07522250 1.47287400 1.351296
v -0.07522250 -1.47287500 -1.351295
v 0.07522250 1.47287400 1.351296
v -0.07522250 -1.47287500 -1.351295
v 0.07522250 -1.47287500 4.053887
v 0.07522250 -1.47287500 4.053887
v -0.07522250 1.47287400 1.351296
v -0.07522250 1.47287400 1.351296
v -0.07522250 -1.47287500 -1.351295
v -0.07522250 -1.47287500 1.351296
v -0.07522250 -1.47287500 1.351296
v -0.07522250 1.47287400 1.351296
v -0.07522250 1.47287500 -1.351295
v 0.07522250 -1.47287500 -1.351295
v -0.07522250 1.47287500 -1.351295
v 0.07522250 1.47287500 -4.053887
v 0.07522250 1.47287500 -1.351295
v 0.07522250 1.47287500 -1.351295
v 0.07522250 1.47287500 -1.351295
v 0.07522250 1.47287400 1.351296
v 0.07522250 1.47287400 1.351296
v -0.07522250 1.47287400 4.053887
v -0.07522250 1.47287400 4.053887
v 0.07522250 1.47287400 4.053887
v 0.07522250 1.47287400 4.053887
v 0.07522250 1.47287500 -4.053887
v 0.07522250 1.47287500 -4.053887
v -0.07522250 1.47287500 -4.053887
v -0.07522250 -1.47287500 4.053887
v -0.07522250 -1.47287500 4.053887
v 0.07522250 1.47287400 4.053887

vn 0.00000000 -1.00000000 -0.0
vn 1.00000000 0.00000000 -0.0
vn 1.00000000 0.00000000 -0.0
vn 0.00000000 0.00000000 -1.0
vn 0.00000000 0.00000000 -1.0
vn 0.00000000 0.00000000 -1.0
vn 0.00000000 0.00000000 -1.0
vn 0.00000000 -1.00000000 -0.0
vn 0.00000000 -1.00000000 -0.0
vn 0.00000000 0.00000000 -1.0
vn 0.00000000 0.00000000 -1.0
vn 0.00000000 0.00000000 1.0
vn -1.00000000 0.00000000 -0.0
vn -1.00000000 0.00000000 -0.0
vn -1.00000000 0.00000000 -0.0
vn -1.00000000 0.00000000 -0.0
vn -1.00000000 0.00000000 -0.0
vn -1.00000000 0.00000000 -0.0
vn 0.00000000 -1.00000000 -0.0
vn 0.00000000 -1.00000000 -0.0
vn 0.00000000 -1.00000000 -0.0
vn 0.00000000 -1.00000000 -0.0
vn 0.00000000 0.00000000 1.0
vn 0.00000000 -1.00000000 -0.0
vn 0.00000000 -1.00000000 -0.0
vn -1.00000000 0.00000000 -0.0
vn -1.00000000 0.00000000 -0.0
vn 0.00000000 -1.00000000 -0.0
vn 0.00000000 -1.00000000 -0.0
vn 0.00000000 -1.00000000 -0.0
vn 0.00000000 -1.00000000 -0.0
vn 0.00000000 -1.00000000 -0.0
vn 0.00000000 -1.00000000 -0.0
vn 0.00000000 0.00000000 1.0
vn 0.00000000 -1.00000000 -0.0
vn 1.00000000 0.00000000 -0.0
vn 1.00000000 0.00000000 -0.0
vn 0.00000000 1.00000000 -0.0
vn 0.00000000 1.00000000 -0.0
vn 0.00000000 1.00000000 -0.0
vn 0.00000000 1.00000000 -0.0
vn 0.00000000 1.00000000 -0.0
vn 0.00000000 1.00000000 -0.0
vn 1.00000000 0.00000000 -0.0
vn 0.00000000 0.00000000 1.0
vn 1.00000000 0.00000000 -0.0
vn 1.00000000 0.00000000 -0.0
vn 1.00000000 0.00000000 -0.0
vn 0.00000000 1.00000000 -0.0
vn 0.00000000 1.00000000 -0.0
vn 0.00000000 1.00000000 -0.0
vn 0.00000000 1.00000000 -0.0
vn 0.00000000 1.00000000 -0.0
vn 0.00000000 1.00000000 -0.0
vn -1.00000000 0.00000000 -0.0
vn 1.00000000 0.00000000 -0.0
vn -1.00000000 0.00000000 -0.0
vn 0.00000000 -1.00000000 -0.0
vn 0.00000000 -1.00000000 -0.0
vn -1.00000000 0.00000000 -0.0
vn -1.00000000 0.00000000 -0.0
vn -1.00000000 0.00000000 -0.0
vn -1.00000000 0.00000000 -0.0
vn -1.00000000 0.00000000 -0.0
vn -1.00000000 0.00000000 -0.0
vn -1.00000000 0.00000000 -0.0
vn 1.00000000 0.00000000 -0.0
vn -1.00000000 0.00000000 -0.0
vn 1.00000000 0.00000000 -0.0
vn 1.00000000 0.00000000 -0.0
vn 1.00000000 0.00000000 -0.0
vn 1.00000000 0.00000000 -0.0
vn 1.00000000 0.00000000 -0.0
vn 1.00000000 0.00000000 -0.0
vn 0.00000000 1.00000000 -0.0
vn 0.00000000 1.00000000 -0.0
vn 0.00000000 1.00000000 -0.0
vn 1.00000000 0.00000000 -0.0
vn 0.00000000 1.00000000 -0.0
vn 0.00000000 1.00000000 -0.0
vn 0.00000000 1.00000000 -0.0
vn 0.00000000 0.00000000 1.0
vn 0.00000000 0.00000000 1.0
vn 1.00000000 0.00000000 -0.0

vt 5.00000000 1.0
vt 0.00000000 1.0
vt 5.00000000 6.0
vt 0.00000000 1.0
vt 0.00000000 1.0
vt 5.00000000 1.0
vt 0.00000000 6.0
vt 0.00000000 1.0
vt 0.00000000 1.0
vt 5.00000000 6.0
vt 5.00000000 6.0
vt 5.00000000 1.0
vt 5.00000000 1.0
vt 5.00000000 1.0
vt 0.00000000 1.0
vt 5.00000000 6.0
vt 0.00000000 1.0
vt 5.00000000 6.0
vt 5.00000000 6.0
vt 5.00000000 6.0
vt 5.00000000 1.0
vt 0.00000000 1.0
vt 0.00000000 6.0
vt 0.00000000 6.0
vt 5.00000000 6.0
vt 5.00000000 1.0
vt 5.00000000 1.0
vt 5.00000000 1.0
vt 5.00000000 6.0
vt 5.00000000 6.0
vt 5.00000000 1.0
vt 5.00000000 6.0
vt 0.00000000 1.0
vt 5.00000000 6.0
vt 0.00000000 6.0
vt 5.00000000 1.0
vt 5.00000000 1.0
vt 5.00000000 1.0
vt 5.00000000 6.0
vt 5.00000000 6.0
vt 5.00000000 6.0
vt 0.00000000 6.0
vt 0.00000000 1.0
vt 5.00000000 6.0
vt 5.00000000 6.0
vt 0.00000000 1.0
vt 0.00000000 1.0
vt 5.00000000 6.0
vt 5.00000000 6.0
vt 5.00000000 6.0
vt 5.00000000 1.0
vt 0.00000000 1.0
vt 0.00000000 6.0
vt 5.00000000 6.0
vt 5.00000000 6.0
vt 5.00000000 1.0
vt 0.00000000 1.0
vt 0.00000000 1.0
vt 0.00000000 1.0
vt 5.00000000 6.0
vt 0.00000000 1.0
vt 5.00000000 1.0
vt 0.00000000 1.0
vt 5.00000000 6.0
vt 5.00000000 1.0
vt 5.00000000 6.0
vt 5.00000000 1.0
vt 0.00000000 1.0
vt 5.00000000 1.0
vt 5.00000000 6.0
vt 0.00000000 1.0
vt 5.00000000 1.0
vt 5.00000000 6.0
vt 0.00000000 1.0
vt 0.00000000 1.0
vt 0.00000000 1.0
vt 5.00000000 1.0
vt 0.00000000 1.0
vt 0.00000000 1.0
vt 0.00000000 1.0
vt 5.00000000 1.0
vt 0.00000000 1.0
vt 0.00000000 1.0
vt 5.00000000 6.0

f 22/22/22 28/28/28 32/32/32 
f 33/33/33 21/21/21 25/25/25 
f 43/43/43 51/51/51 54/54/54 
f 52/52/52 38/38/38 41/41/41 
f 82/82/82 12/12/12 34/34/34 
f 45/45/45 23/23/23 83/83/83 
f 47/47/47 72/72/72 73/73/73 
f 74/74/74 36/36/36 48/48/48 
f 4/4/4 6/6/6 10/10/10 
f 11/11/11 7/7/7 5/5/5 
f 63/63/63 65/65/65 66/66/66 
f 68/68/68 62/62/62 64/64/64 
f 8/8/8 31/31/31 29/29/29 
f 30/30/30 24/24/24 9/9/9 
f 58/58/58 1/1/1 19/19/19 
f 20/20/20 35/35/35 59/59/59 
f 79/79/79 81/81/81 49/49/49 
f 50/50/50 42/42/42 80/80/80 
f 75/75/75 77/77/77 39/39/39 
f 40/40/40 53/53/53 76/76/76 
f 2/2/2 69/69/69 70/70/70 
f 71/71/71 67/67/67 3/3/3 
f 78/78/78 37/37/37 44/44/44 
f 46/46/46 56/56/56 84/84/84 
f 17/17/17 26/26/26 60/60/60 
f 61/61/61 14/14/14 18/18/18 
f 15/15/15 27/27/27 55/55/55 
f 57/57/57 13/13/13 16/16/16 

