# V 0.13

mtllib souphalfwall021.mtl

o souphalfwall021_high_1

usemtl souphalfwall021_0

v -0.07522250 -1.47287500 0.6756476
v -0.07522250 -1.47287500 -0.6756476
v 0.07522250 1.47287400 -0.6756476
v -0.07522250 1.47287500 -0.6756476
v -0.07522250 1.47287500 -0.6756476
v 0.07522250 1.47287400 0.6756476
v 0.07522250 1.47287400 0.6756476
v -0.07522250 -1.47287500 -0.6756476
v -0.07522250 -1.47287500 -0.6756476
v -0.07522250 -1.47287500 -0.6756476
v -0.07522250 -1.47287500 0.6756476
v 0.07522250 1.47287400 0.6756476
v -0.07522250 -1.47287500 0.6756476
v 0.07522250 -1.47287500 0.6756476
v 0.07522250 -1.47287500 0.6756476
v -0.07522250 1.47287400 0.6756476
v -0.07522250 1.47287500 -0.6756476
v -0.07522250 1.47287500 -0.6756476
v -0.07522250 1.47287500 -0.6756476
v -0.07522250 1.47287500 -0.6756476
v 0.07522250 -1.47287500 -0.6756476
v -0.07522250 1.47287400 0.6756476
v 0.07522250 1.47287400 0.6756476
v 0.07522250 1.47287400 0.6756476
v 0.07522250 1.47287400 0.6756476
v 0.07522250 1.47287400 -0.6756476
v -0.07522250 -1.47287500 0.6756476
v -0.07522250 -1.47287500 0.6756476
v 0.07522250 -1.47287500 0.6756476
v -0.07522250 1.47287400 0.6756476
v 0.07522250 -1.47287500 0.6756476
v 0.07522250 -1.47287500 -0.6756476
v 0.07522250 -1.47287500 -0.6756476
v 0.07522250 1.47287400 -0.6756476
v 0.07522250 -1.47287500 -0.6756476
v 0.07522250 -1.47287500 -0.6756476

vn 0.00000000 -1.00000000 -0.0
vn 0.00000000 0.00000000 -1.0
vn 0.00000000 0.00000000 -1.0
vn 0.00000000 0.00000000 -1.0
vn 0.00000000 0.00000000 -1.0
vn 1.00000000 0.00000000 -0.0
vn 1.00000000 0.00000000 -0.0
vn -1.00000000 0.00000000 -0.0
vn 0.00000000 -1.00000000 -0.0
vn 0.00000000 -1.00000000 -0.0
vn -1.00000000 0.00000000 -0.0
vn 0.00000000 0.00000000 1.0
vn -1.00000000 0.00000000 -0.0
vn 0.00000000 -1.00000000 -0.0
vn 0.00000000 -1.00000000 -0.0
vn -1.00000000 0.00000000 -0.0
vn 0.00000150 1.00000000 -0.0
vn 0.00000150 1.00000000 -0.0
vn -1.00000000 0.00000000 -0.0
vn -1.00000000 0.00000000 -0.0
vn 0.00000000 -1.00000000 -0.0
vn 0.00000000 1.00000000 -0.0
vn 0.00000000 0.00000000 1.0
vn 0.00000000 1.00000000 -0.0
vn 0.00000000 1.00000000 -0.0
vn 0.00000150 1.00000000 -0.0
vn 0.00000000 0.00000000 1.0
vn 0.00000000 0.00000000 1.0
vn 0.00000000 0.00000000 1.0
vn 0.00000000 0.00000000 1.0
vn 1.00000000 0.00000000 -0.0
vn 1.00000000 0.00000000 -0.0
vn 1.00000000 0.00000000 -0.0
vn 1.00000000 0.00000000 -0.0
vn 0.00000000 0.00000000 -1.0
vn 0.00000000 0.00000000 -1.0

vt 0.58938840 1.2443857999999999
vt 0.58938800 1.0237395
vt 0.41061160 1.9762604000000001
vt 0.58938800 1.9762605
vt 0.58938800 1.9762605
vt 0.24438580 1.9762604000000001
vt 0.24438580 1.9762604000000001
vt 0.24438580 1.0237395
vt 0.58938800 1.7556142000000001
vt 0.58938800 1.7556142000000001
vt 0.75561420 1.0237395
vt 0.58938800 1.9762604000000001
vt 0.75561420 1.0237395
vt 0.41061200 1.2443857999999999
vt 0.41061200 1.2443857999999999
vt 0.75561420 1.9762604000000001
vt 0.41061200 1.7556142000000001
vt 0.41061200 1.7556142000000001
vt 0.24438580 1.9762605
vt 0.24438580 1.9762605
vt 0.41061160 1.7556142000000001
vt 0.41061160 1.2443857999999999
vt 0.58938800 1.9762604000000001
vt 0.58938800 1.2443857999999999
vt 0.58938800 1.2443857999999999
vt 0.58938840 1.7556142000000001
vt 0.41061160 1.0237395
vt 0.41061160 1.0237395
vt 0.58938800 1.0237395
vt 0.41061160 1.9762604000000001
vt 0.24438580 1.0237395
vt 0.75561420 1.0237395
vt 0.75561420 1.0237395
vt 0.75561420 1.9762604000000001
vt 0.41061160 1.0237395
vt 0.41061160 1.0237395

f 10/10/10 21/21/21 15/15/15 
f 14/14/14 1/1/1 9/9/9 
f 24/24/24 26/26/26 18/18/18 
f 17/17/17 22/22/22 25/25/25 
f 27/27/27 29/29/29 23/23/23 
f 12/12/12 30/30/30 28/28/28 
f 33/33/33 34/34/34 7/7/7 
f 6/6/6 31/31/31 32/32/32 
f 36/36/36 2/2/2 5/5/5 
f 4/4/4 3/3/3 35/35/35 
f 13/13/13 16/16/16 20/20/20 
f 19/19/19 8/8/8 11/11/11 

