# V 0.13

mtllib soupwall033.mtl

o soupwall033_high_1

usemtl soupwall033_0

v -0.07522250 -1.47287500 1.351296
v -0.07522250 -1.47287500 1.351296
v 0.07522250 -1.47287500 1.351296
v -0.07522250 -1.47287500 -1.351296
v 0.07522250 -1.47287500 -1.351296
v 0.07522250 1.47287500 -1.351295
v 0.07522250 1.47287500 -1.351295
v 0.07522250 1.47287400 1.351296
v 0.07522250 -1.47287500 1.351296
v 0.07522250 -1.47287500 -1.351296
v -0.07522250 -1.47287500 -1.351296
v 0.07522250 1.47287500 -1.351295
v -0.07522250 1.47287500 -1.351295
v -0.07522250 1.47287500 -1.351295
v 0.07522250 1.47287500 -1.351295
v 0.07522250 -1.47287500 -1.351296
v 0.07522250 -1.47287500 -1.351296
v -0.07522250 -1.47287500 -1.351296
v -0.07522250 -1.47287500 1.351296
v -0.07522250 1.47287400 1.351296
v -0.07522250 1.47287400 1.351296
v -0.07522250 1.47287500 -1.351295
v -0.07522250 1.47287500 -1.351295
v -0.07522250 -1.47287500 -1.351296
v 0.07522250 -1.47287500 -1.351296
v 0.07522250 -1.47287500 1.351296
v -0.07522250 -1.47287500 1.351296
v -0.07522250 1.47287400 1.351296
v 0.07522250 1.47287400 1.351296
v 0.07522250 1.47287500 -1.351295
v -0.07522250 1.47287400 1.351296
v -0.07522250 -1.47287500 1.351296
v 0.07522250 -1.47287500 1.351296
v 0.07522250 1.47287400 1.351296
v 0.07522250 1.47287400 1.351296
v -0.07522250 1.47287400 1.351296

vn 0.00000000 -1.00000000 -0.0
vn 0.00000000 0.00000000 1.0
vn 1.00000000 0.00000000 -0.0
vn 0.00000000 -1.00000000 -0.0
vn 1.00000000 0.00000000 -0.0
vn 1.00000000 0.00000000 -0.0
vn 1.00000000 0.00000000 -0.0
vn 1.00000000 0.00000000 -0.0
vn 1.00000000 0.00000000 -0.0
vn 0.00000000 0.00000000 -1.0
vn 0.00000000 0.00000000 -1.0
vn 0.00000000 1.00000000 -0.0
vn 0.00000000 0.00000000 -1.0
vn 0.00000000 0.00000000 -1.0
vn 0.00000000 0.00000000 -1.0
vn 0.00000000 -1.00000000 -0.0
vn 0.00000000 0.00000000 -1.0
vn -1.00000000 0.00000000 -0.0
vn -1.00000000 0.00000000 -0.0
vn -1.00000000 0.00000000 -0.0
vn -1.00000000 0.00000000 -0.0
vn -1.00000000 0.00000000 -0.0
vn 0.00000000 1.00000000 -0.0
vn -1.00000000 0.00000000 -0.0
vn 0.00000000 -1.00000000 -0.0
vn 0.00000000 -1.00000000 -0.0
vn 0.00000000 -1.00000000 -0.0
vn 0.00000000 1.00000000 -0.0
vn 0.00000000 1.00000000 -0.0
vn 0.00000000 1.00000000 -0.0
vn 0.00000000 1.00000000 -0.0
vn 0.00000000 0.00000000 1.0
vn 0.00000000 0.00000000 1.0
vn 0.00000000 0.00000000 1.0
vn 0.00000000 0.00000000 1.0
vn 0.00000000 0.00000000 1.0

vt 0.54469430 0.6971157
vt 0.45530570 0.6248784000000001
vt -0.30288430 0.6248784000000001
vt 0.54469390 2.3028839999999997
vt 1.30288400 0.6248784000000001
vt 1.30288400 2.375122
vt 1.30288400 2.375122
vt -0.30288440 2.375121
vt -0.30288430 0.6248784000000001
vt 0.45530570 0.6248784000000001
vt 0.54469390 0.6248784000000001
vt 0.54469430 2.3028839999999997
vt 0.54469390 2.375122
vt 0.54469390 2.375122
vt 0.45530570 2.375122
vt 0.45530570 2.3028839999999997
vt 0.45530570 0.6248784000000001
vt -0.30288450 0.6248784000000001
vt 1.30288400 0.6248784000000001
vt 1.30288400 2.375121
vt 1.30288400 2.375121
vt -0.30288430 2.375122
vt 0.45530610 2.3028839999999997
vt -0.30288450 0.6248784000000001
vt 0.45530570 2.3028839999999997
vt 0.45530610 0.6971157
vt 0.54469430 0.6971157
vt 0.45530570 0.6971156000000001
vt 0.54469390 0.6971156000000001
vt 0.54469430 2.3028839999999997
vt 0.45530570 0.6971156000000001
vt 0.45530570 0.6248784000000001
vt 0.54469390 0.6248784000000001
vt 0.54469390 2.375121
vt 0.54469390 2.375121
vt 0.45530570 2.375121

f 1/1/1 4/4/4 16/16/16 
f 25/25/25 26/26/26 27/27/27 
f 28/28/28 29/29/29 30/30/30 
f 12/12/12 23/23/23 31/31/31 
f 32/32/32 33/33/33 34/34/34 
f 35/35/35 36/36/36 2/2/2 
f 3/3/3 5/5/5 6/6/6 
f 7/7/7 8/8/8 9/9/9 
f 10/10/10 11/11/11 13/13/13 
f 14/14/14 15/15/15 17/17/17 
f 18/18/18 19/19/19 20/20/20 
f 21/21/21 22/22/22 24/24/24 

