# V 0.13

mtllib souplongwall005.mtl

o souplongwall005_high_1

usemtl souplongwall005_0

v -0.07522250 -1.47287500 4.053887
v 0.07522250 -1.47287500 -4.053887
v 0.07522250 -1.47287500 -4.053887
v 0.07522250 -1.47287500 -4.053887
v 0.07522250 -1.47287500 -4.053887
v -0.07522250 -1.47287500 -4.053887
v 0.07522250 1.47287500 -4.053887
v -0.07522250 -1.47287500 -4.053887
v -0.07522250 -1.47287500 -4.053887
v -0.07522250 1.47287500 -4.053887
v -0.07522250 1.47287500 -4.053887
v 0.07522250 -1.47287500 4.053887
v -0.07522250 1.47287500 -1.351295
v -0.07522250 -1.47287500 1.351296
v -0.07522250 1.47287500 -4.053887
v -0.07522250 1.47287500 -4.053887
v -0.07522250 -1.47287500 4.053887
v -0.07522250 -1.47287500 4.053887
v -0.07522250 -1.47287500 1.351296
v -0.07522250 -1.47287500 1.351296
v -0.07522250 -1.47287500 1.351296
v -0.07522250 -1.47287500 -1.351295
v -0.07522250 1.47287400 4.053887
v -0.07522250 -1.47287500 -1.351295
v -0.07522250 -1.47287500 -1.351295
v -0.07522250 1.47287400 4.053887
v -0.07522250 -1.47287500 -4.053887
v 0.07522250 -1.47287500 -1.351295
v 0.07522250 -1.47287500 -1.351295
v 0.07522250 -1.47287500 -1.351295
v 0.07522250 -1.47287500 -4.053887
v 0.07522250 -1.47287500 1.351296
v 0.07522250 -1.47287500 1.351296
v 0.07522250 1.47287400 4.053887
v 0.07522250 -1.47287500 1.351296
v 0.07522250 -1.47287500 1.351296
v 0.07522250 -1.47287500 4.053887
v 0.07522250 1.47287400 1.351296
v 0.07522250 1.47287400 1.351296
v 0.07522250 1.47287400 1.351296
v 0.07522250 1.47287500 -1.351295
v 0.07522250 1.47287500 -1.351295
v 0.07522250 1.47287500 -1.351295
v 0.07522250 -1.47287500 1.351296
v 0.07522250 1.47287400 4.053887
v 0.07522250 -1.47287500 1.351296
v 0.07522250 -1.47287500 -1.351295
v 0.07522250 -1.47287500 -1.351295
v -0.07522250 1.47287500 -1.351295
v -0.07522250 1.47287500 -1.351295
v -0.07522250 1.47287500 -1.351295
v -0.07522250 1.47287400 1.351296
v -0.07522250 1.47287400 1.351296
v -0.07522250 1.47287400 1.351296
v -0.07522250 -1.47287500 -1.351295
v 0.07522250 1.47287400 1.351296
v -0.07522250 -1.47287500 -1.351295
v 0.07522250 -1.47287500 4.053887
v 0.07522250 -1.47287500 4.053887
v -0.07522250 1.47287400 1.351296
v -0.07522250 1.47287400 1.351296
v -0.07522250 -1.47287500 -1.351295
v -0.07522250 -1.47287500 1.351296
v -0.07522250 -1.47287500 1.351296
v -0.07522250 1.47287400 1.351296
v -0.07522250 1.47287500 -1.351295
v 0.07522250 -1.47287500 -1.351295
v -0.07522250 1.47287500 -1.351295
v 0.07522250 1.47287500 -4.053887
v 0.07522250 1.47287500 -1.351295
v 0.07522250 1.47287500 -1.351295
v 0.07522250 1.47287500 -1.351295
v 0.07522250 1.47287400 1.351296
v 0.07522250 1.47287400 1.351296
v -0.07522250 1.47287400 4.053887
v -0.07522250 1.47287400 4.053887
v 0.07522250 1.47287400 4.053887
v 0.07522250 1.47287400 4.053887
v 0.07522250 1.47287500 -4.053887
v 0.07522250 1.47287500 -4.053887
v -0.07522250 1.47287500 -4.053887
v -0.07522250 -1.47287500 4.053887
v -0.07522250 -1.47287500 4.053887
v 0.07522250 1.47287400 4.053887

vn 0.00000000 -1.00000000 -0.0
vn 1.00000000 0.00000000 -0.0
vn 1.00000000 0.00000000 -0.0
vn 0.00000000 0.00000000 -1.0
vn 0.00000000 0.00000000 -1.0
vn 0.00000000 0.00000000 -1.0
vn 0.00000000 0.00000000 -1.0
vn 0.00000000 -1.00000000 -0.0
vn 0.00000000 -1.00000000 -0.0
vn 0.00000000 0.00000000 -1.0
vn 0.00000000 0.00000000 -1.0
vn 0.00000000 0.00000000 1.0
vn -1.00000000 0.00000000 -0.0
vn -1.00000000 0.00000000 -0.0
vn -1.00000000 0.00000000 -0.0
vn -1.00000000 0.00000000 -0.0
vn -1.00000000 0.00000000 -0.0
vn -1.00000000 0.00000000 -0.0
vn 0.00000000 -1.00000000 -0.0
vn 0.00000000 -1.00000000 -0.0
vn 0.00000000 -1.00000000 -0.0
vn 0.00000000 -1.00000000 -0.0
vn 0.00000000 0.00000000 1.0
vn 0.00000000 -1.00000000 -0.0
vn 0.00000000 -1.00000000 -0.0
vn -1.00000000 0.00000000 -0.0
vn -1.00000000 0.00000000 -0.0
vn 0.00000000 -1.00000000 -0.0
vn 0.00000000 -1.00000000 -0.0
vn 0.00000000 -1.00000000 -0.0
vn 0.00000000 -1.00000000 -0.0
vn 0.00000000 -1.00000000 -0.0
vn 0.00000000 -1.00000000 -0.0
vn 0.00000000 0.00000000 1.0
vn 0.00000000 -1.00000000 -0.0
vn 1.00000000 0.00000000 -0.0
vn 1.00000000 0.00000000 -0.0
vn 0.00000000 1.00000000 -0.0
vn 0.00000000 1.00000000 -0.0
vn 0.00000000 1.00000000 -0.0
vn 0.00000000 1.00000000 -0.0
vn 0.00000000 1.00000000 -0.0
vn 0.00000000 1.00000000 -0.0
vn 1.00000000 0.00000000 -0.0
vn 0.00000000 0.00000000 1.0
vn 1.00000000 0.00000000 -0.0
vn 1.00000000 0.00000000 -0.0
vn 1.00000000 0.00000000 -0.0
vn 0.00000000 1.00000000 -0.0
vn 0.00000000 1.00000000 -0.0
vn 0.00000000 1.00000000 -0.0
vn 0.00000000 1.00000000 -0.0
vn 0.00000000 1.00000000 -0.0
vn 0.00000000 1.00000000 -0.0
vn -1.00000000 0.00000000 -0.0
vn 1.00000000 0.00000000 -0.0
vn -1.00000000 0.00000000 -0.0
vn 0.00000000 -1.00000000 -0.0
vn 0.00000000 -1.00000000 -0.0
vn -1.00000000 0.00000000 -0.0
vn -1.00000000 0.00000000 -0.0
vn -1.00000000 0.00000000 -0.0
vn -1.00000000 0.00000000 -0.0
vn -1.00000000 0.00000000 -0.0
vn -1.00000000 0.00000000 -0.0
vn -1.00000000 0.00000000 -0.0
vn 1.00000000 0.00000000 -0.0
vn -1.00000000 0.00000000 -0.0
vn 1.00000000 0.00000000 -0.0
vn 1.00000000 0.00000000 -0.0
vn 1.00000000 0.00000000 -0.0
vn 1.00000000 0.00000000 -0.0
vn 1.00000000 0.00000000 -0.0
vn 1.00000000 0.00000000 -0.0
vn 0.00000000 1.00000000 -0.0
vn 0.00000000 1.00000000 -0.0
vn 0.00000000 1.00000000 -0.0
vn 1.00000000 0.00000000 -0.0
vn 0.00000000 1.00000000 -0.0
vn 0.00000000 1.00000000 -0.0
vn 0.00000000 1.00000000 -0.0
vn 0.00000000 0.00000000 1.0
vn 0.00000000 0.00000000 1.0
vn 1.00000000 0.00000000 -0.0

vt 0.85755750 1.0010344
vt 0.99896560 1.0090634
vt 0.99896560 1.0090634
vt 0.14244250 1.0090634
vt 0.14244250 1.0090634
vt 0.85754840 1.0090634
vt 0.14244250 1.9909366
vt 0.85754840 1.9989656
vt 0.85754840 1.9989656
vt 0.85754840 1.9909366
vt 0.85754840 1.9909366
vt 0.85754840 1.0090634
vt 0.33367810 1.9909366
vt 0.66632180 1.0090634
vt 0.00103440 1.9909366
vt 0.00103440 1.9909366
vt 0.99896560 1.0090634
vt 0.99896560 1.0090634
vt 0.85755440 1.3336781
vt 0.85755440 1.3336781
vt 0.85755440 1.3336781
vt 0.85755150 1.6663218
vt 0.14244250 1.9909366
vt 0.85755150 1.6663218
vt 0.85755150 1.6663218
vt 0.99896560 1.9909366
vt 0.00103440 1.0090634
vt 0.14244560 1.6663218
vt 0.14244560 1.6663218
vt 0.14244560 1.6663218
vt 0.14244250 1.9989656
vt 0.14244850 1.3336781
vt 0.14244850 1.3336781
vt 0.85754840 1.9909366
vt 0.14244850 1.3336781
vt 0.33367810 1.0090634
vt 0.00103440 1.0090634
vt 0.85755150 1.3336781
vt 0.85755150 1.3336781
vt 0.85755150 1.3336781
vt 0.85755440 1.6663218
vt 0.85755440 1.6663218
vt 0.85755440 1.6663218
vt 0.33367810 1.0090634
vt 0.85754840 1.9909366
vt 0.33367810 1.0090634
vt 0.66632180 1.0090634
vt 0.66632180 1.0090634
vt 0.14244860 1.6663218
vt 0.14244860 1.6663218
vt 0.14244860 1.6663218
vt 0.14244550 1.3336781
vt 0.14244550 1.3336781
vt 0.14244550 1.3336781
vt 0.33367810 1.0090634
vt 0.33367810 1.9909366
vt 0.33367810 1.0090634
vt 0.14245160 1.0010344
vt 0.14245160 1.0010344
vt 0.66632180 1.9909366
vt 0.66632180 1.9909366
vt 0.33367810 1.0090634
vt 0.66632180 1.0090634
vt 0.66632180 1.0090634
vt 0.66632180 1.9909366
vt 0.33367810 1.9909366
vt 0.66632180 1.0090634
vt 0.33367810 1.9909366
vt 0.99896560 1.9909366
vt 0.66632180 1.9909366
vt 0.66632180 1.9909366
vt 0.66632180 1.9909366
vt 0.33367810 1.9909366
vt 0.33367810 1.9909366
vt 0.14244250 1.0010344
vt 0.14244250 1.0010344
vt 0.85754840 1.0010344
vt 0.00103440 1.9909366
vt 0.85755750 1.9989656
vt 0.85755750 1.9989656
vt 0.14245160 1.9989656
vt 0.14244250 1.0090634
vt 0.14244250 1.0090634
vt 0.00103440 1.9909366

f 24/24/24 29/29/29 33/33/33 
f 35/35/35 20/20/20 25/25/25 
f 42/42/42 50/50/50 53/53/53 
f 54/54/54 39/39/39 43/43/43 
f 82/82/82 12/12/12 45/45/45 
f 34/34/34 23/23/23 83/83/83 
f 48/48/48 72/72/72 74/74/74 
f 73/73/73 36/36/36 47/47/47 
f 5/5/5 6/6/6 11/11/11 
f 10/10/10 7/7/7 4/4/4 
f 64/64/64 65/65/65 68/68/68 
f 66/66/66 62/62/62 63/63/63 
f 9/9/9 31/31/31 30/30/30 
f 28/28/28 22/22/22 8/8/8 
f 59/59/59 1/1/1 21/21/21 
f 19/19/19 32/32/32 58/58/58 
f 80/80/80 81/81/81 51/51/51 
f 49/49/49 41/41/41 79/79/79 
f 76/76/76 77/77/77 40/40/40 
f 38/38/38 52/52/52 75/75/75 
f 3/3/3 69/69/69 71/71/71 
f 70/70/70 67/67/67 2/2/2 
f 84/84/84 37/37/37 46/46/46 
f 44/44/44 56/56/56 78/78/78 
f 18/18/18 26/26/26 61/61/61 
f 60/60/60 14/14/14 17/17/17 
f 16/16/16 27/27/27 57/57/57 
f 55/55/55 13/13/13 15/15/15 

