# V 0.13

mtllib soupdoorwall032.mtl

o soupdoorwall032_high_1

usemtl soupdoorwall032_0

v -0.07522250 -1.47287500 -0.6476011
v 0.07522250 0.81515940 -0.647601
v 0.07522250 -1.47287500 0.6160003
v 0.07522250 -1.47287500 1.351296
v 0.07522250 -1.47287500 1.351296
v 0.07522250 1.47287500 -1.351295
v 0.07522250 1.47287500 -1.351295
v 0.07522250 1.47287500 -1.351295
v 0.07522250 0.81515940 -0.647601
v 0.07522250 0.81515940 -0.647601
v 0.07522250 0.81515940 -0.647601
v 0.07522250 -1.47287500 -0.6476011
v -0.07522250 -1.47287500 -1.351296
v -0.07522250 -1.47287500 -1.351296
v -0.07522250 -1.47287500 1.351296
v -0.07522250 -1.47287500 0.6160003
v -0.07522250 -1.47287500 0.6160003
v -0.07522250 -1.47287500 0.6160003
v -0.07522250 -1.47287500 1.351296
v -0.07522250 -1.47287500 1.351296
v -0.07522250 1.47287500 -1.351295
v -0.07522250 1.47287400 1.351296
v 0.07522250 -1.47287500 -1.351296
v -0.07522250 1.47287400 1.351296
v -0.07522250 1.47287400 1.351296
v -0.07522250 1.47287400 1.351296
v -0.07522250 1.47287400 1.351296
v 0.07522250 -1.47287500 -1.351296
v -0.07522250 0.81515940 0.6160004
v -0.07522250 0.81515940 0.6160004
v -0.07522250 0.81515940 0.6160004
v 0.07522250 1.47287400 1.351296
v 0.07522250 1.47287400 1.351296
v 0.07522250 -1.47287500 -1.351296
v 0.07522250 -1.47287500 -1.351296
v -0.07522250 -1.47287500 -1.351296
v -0.07522250 -1.47287500 -1.351296
v -0.07522250 1.47287500 -1.351295
v 0.07522250 0.81515940 0.6160004
v 0.07522250 0.81515940 0.6160004
v 0.07522250 0.81515940 0.6160004
v 0.07522250 0.81515940 0.6160004
v -0.07522250 1.47287500 -1.351295
v -0.07522250 1.47287500 -1.351295
v -0.07522250 1.47287400 1.351296
v -0.07522250 0.81515940 -0.647601
v -0.07522250 0.81515940 -0.647601
v -0.07522250 0.81515940 -0.647601
v -0.07522250 0.81515940 -0.647601
v 0.07522250 -1.47287500 1.351296
v 0.07522250 -1.47287500 1.351296
v 0.07522250 -1.47287500 0.6160003
v -0.07522250 -1.47287500 -1.351296
v -0.07522250 -1.47287500 -1.351296
v -0.07522250 -1.47287500 -0.6476011
v -0.07522250 1.47287400 1.351296
v 0.07522250 1.47287500 -1.351295
v 0.07522250 1.47287500 -1.351295
v 0.07522250 -1.47287500 -0.6476011
v 0.07522250 -1.47287500 -0.6476011
v -0.07522250 0.81515940 -0.647601
v -0.07522250 -1.47287500 -0.6476011
v -0.07522250 -1.47287500 -0.6476011
v 0.07522250 -1.47287500 -0.6476011
v 0.07522250 0.81515940 -0.647601
v 0.07522250 0.81515940 -0.647601
v -0.07522250 0.81515940 0.6160004
v 0.07522250 0.81515940 0.6160004
v 0.07522250 -1.47287500 0.6160003
v 0.07522250 -1.47287500 0.6160003
v -0.07522250 -1.47287500 0.6160003
v -0.07522250 0.81515940 0.6160004
v -0.07522250 0.81515940 0.6160004
v 0.07522250 0.81515940 0.6160004
v 0.07522250 0.81515940 0.6160004
v 0.07522250 1.47287400 1.351296
v 0.07522250 1.47287500 -1.351295
v -0.07522250 0.81515940 -0.647601
v 0.07522250 1.47287500 -1.351295
v -0.07522250 -1.47287500 1.351296
v 0.07522250 -1.47287500 1.351296
v 0.07522250 -1.47287500 1.351296
v 0.07522250 1.47287400 1.351296
v -0.07522250 0.81515940 -0.647601

vn 0.00000000 -1.00000000 -0.0
vn 0.00000000 -1.00000000 -0.0
vn 0.00000000 -1.00000000 -0.0
vn 0.00000000 -1.00000000 -0.0
vn 0.00000000 -1.00000000 -0.0
vn 1.00000000 0.00000000 -0.0
vn 1.00000000 0.00000000 -0.0
vn 1.00000000 0.00000000 -0.0
vn 1.00000000 0.00000000 -0.0
vn 1.00000000 0.00000000 -0.0
vn 1.00000000 0.00000000 -0.0
vn 1.00000000 0.00000000 -0.0
vn 0.00000000 -1.00000000 -0.0
vn 0.00000000 -1.00000000 -0.0
vn 0.00000000 -1.00000000 -0.0
vn 0.00000000 -1.00000000 -0.0
vn 0.00000000 -1.00000000 -0.0
vn -1.00000000 0.00000000 -0.0
vn -1.00000000 0.00000000 -0.0
vn -1.00000000 0.00000000 -0.0
vn 0.00000000 1.00000000 -0.0
vn 0.00000000 1.00000000 -0.0
vn 1.00000000 0.00000000 -0.0
vn 0.00000000 1.00000000 -0.0
vn -1.00000000 0.00000000 -0.0
vn -1.00000000 0.00000000 -0.0
vn -1.00000000 0.00000000 -0.0
vn 0.00000000 0.00000000 -1.0
vn -1.00000000 0.00000000 -0.0
vn -1.00000000 0.00000000 -0.0
vn -1.00000000 0.00000000 -0.0
vn 1.00000000 0.00000000 -0.0
vn 1.00000000 0.00000000 -0.0
vn 1.00000000 0.00000000 -0.0
vn 0.00000000 -1.00000000 -0.0
vn 0.00000000 0.00000000 -1.0
vn 0.00000000 0.00000000 -1.0
vn 0.00000000 0.00000000 -1.0
vn 1.00000000 0.00000000 -0.0
vn 1.00000000 0.00000000 -0.0
vn 1.00000000 0.00000000 -0.0
vn 1.00000000 0.00000000 -0.0
vn -1.00000000 0.00000000 -0.0
vn -1.00000000 0.00000000 -0.0
vn 0.00000000 0.00000000 1.0
vn -1.00000000 0.00000000 -0.0
vn -1.00000000 0.00000000 -0.0
vn -1.00000000 0.00000000 -0.0
vn -1.00000000 0.00000000 -0.0
vn 1.00000000 0.00000000 -0.0
vn 1.00000000 0.00000000 -0.0
vn 1.00000000 0.00000000 -0.0
vn -1.00000000 0.00000000 -0.0
vn -1.00000000 0.00000000 -0.0
vn -1.00000000 0.00000000 -0.0
vn 0.00000000 0.00000000 1.0
vn 0.00000000 0.00000000 -1.0
vn 0.00000000 0.00000000 -1.0
vn 0.00000000 -1.00000000 -0.0
vn 0.00000000 -1.00000000 -0.0
vn 0.00000000 0.00000000 1.0
vn 0.00000000 0.00000000 1.0
vn 0.00000000 0.00000000 1.0
vn 0.00000000 0.00000000 1.0
vn 0.00000000 0.00000000 1.0
vn 0.00000000 0.00000000 1.0
vn 0.00000000 -1.00000000 -0.0
vn 0.00000000 0.00000000 -1.0
vn 0.00000000 0.00000000 -1.0
vn 0.00000000 0.00000000 -1.0
vn 0.00000000 0.00000000 -1.0
vn 0.00000000 0.00000000 -1.0
vn 0.00000000 0.00000000 -1.0
vn 0.00000000 -1.00000000 -0.0
vn 0.00000000 -1.00000000 -0.0
vn 0.00000000 1.00000000 -0.0
vn 0.00000000 1.00000000 -0.0
vn 0.00000000 -1.00000000 -0.0
vn 0.00000000 1.00000000 -0.0
vn 0.00000000 0.00000000 1.0
vn 0.00000000 0.00000000 1.0
vn 0.00000000 0.00000000 1.0
vn 0.00000000 0.00000000 1.0
vn 0.00000000 -1.00000000 -0.0

vt 0.58938800 2.2695559999999997
vt 0.41061160 2.2695559999999997
vt 0.41061190 0.7679958
vt 0.41061220 -0.105769
vt 0.41061220 -0.105769
vt 2.10576900 3.250243
vt 2.10576900 3.250243
vt 2.10576900 3.250243
vt 1.26955600 2.4686690000000002
vt 1.26955600 2.4686690000000002
vt 1.26955600 2.4686690000000002
vt 1.26955600 -0.250243
vt 0.58938790 3.105769
vt 0.58938790 3.105769
vt 0.58938860 -0.105769
vt 0.58938840 0.7679958
vt 0.58938840 0.7679958
vt 1.23200400 -0.250243
vt 2.10576900 -0.250243
vt 2.10576900 -0.250243
vt 0.41061210 3.105769
vt 0.41061140 -0.105769
vt 2.10576900 -0.250243
vt 0.41061140 -0.105769
vt 2.10576900 3.250243
vt 2.10576900 3.250243
vt 2.10576900 3.250243
vt 0.41061140 -0.250243
vt 1.23200400 2.4686690000000002
vt 1.23200400 2.4686690000000002
vt 1.23200400 2.4686690000000002
vt -1.10576900 3.250243
vt -1.10576900 3.250243
vt 2.10576900 -0.250243
vt 0.41061140 3.105769
vt 0.58938790 -0.250243
vt 0.58938790 -0.250243
vt 0.58938790 3.250243
vt -0.23200420 2.4686690000000002
vt -0.23200420 2.4686690000000002
vt -0.23200420 2.4686690000000002
vt -0.23200420 2.4686690000000002
vt -1.10576900 3.250243
vt -1.10576900 3.250243
vt 0.41061140 3.250243
vt -0.26955600 2.4686690000000002
vt -0.26955600 2.4686690000000002
vt -0.26955600 2.4686690000000002
vt -0.26955600 2.4686690000000002
vt -1.10576900 -0.250243
vt -1.10576900 -0.250243
vt -0.23200420 -0.250243
vt -1.10576900 -0.250243
vt -1.10576900 -0.250243
vt -0.26955600 -0.250243
vt 0.41061140 3.250243
vt 0.41061140 3.250243
vt 0.41061140 3.250243
vt 0.41061160 2.2695559999999997
vt 0.41061160 2.2695559999999997
vt 0.41061190 2.4686690000000002
vt 0.41061200 -0.250243
vt 0.41061200 -0.250243
vt 0.58938840 -0.250243
vt 0.58938840 2.4686690000000002
vt 0.58938840 2.4686690000000002
vt 0.58938840 0.7679958
vt 0.41061190 2.4686690000000002
vt 0.41061190 -0.250243
vt 0.41061190 -0.250243
vt 0.58938840 -0.250243
vt 0.58938840 2.4686690000000002
vt 0.58938840 2.4686690000000002
vt 0.41061190 0.7679958
vt 0.41061190 0.7679958
vt 0.58938780 -0.105769
vt 0.58938860 3.105769
vt 0.58938810 2.2695559999999997
vt 0.58938860 3.105769
vt 0.41061140 -0.250243
vt 0.58938780 -0.250243
vt 0.58938780 -0.250243
vt 0.58938780 3.250243
vt 0.58938810 2.2695559999999997

f 77/77/77 21/21/21 24/24/24 
f 22/22/22 76/76/76 79/79/79 
f 81/81/81 83/83/83 56/56/56 
f 45/45/45 80/80/80 82/82/82 
f 37/37/37 38/38/38 58/58/58 
f 57/57/57 28/28/28 36/36/36 
f 14/14/14 35/35/35 60/60/60 
f 59/59/59 1/1/1 13/13/13 
f 5/5/5 15/15/15 17/17/17 
f 16/16/16 3/3/3 4/4/4 
f 34/34/34 7/7/7 10/10/10 
f 11/11/11 12/12/12 23/23/23 
f 20/20/20 26/26/26 30/30/30 
f 31/31/31 18/18/18 19/19/19 
f 8/8/8 33/33/33 40/40/40 
f 41/41/41 9/9/9 6/6/6 
f 27/27/27 44/44/44 47/47/47 
f 48/48/48 29/29/29 25/25/25 
f 51/51/51 52/52/52 42/42/42 
f 39/39/39 32/32/32 50/50/50 
f 54/54/54 55/55/55 49/49/49 
f 46/46/46 43/43/43 53/53/53 
f 63/63/63 64/64/64 66/66/66 
f 65/65/65 61/61/61 62/62/62 
f 84/84/84 2/2/2 75/75/75 
f 74/74/74 67/67/67 78/78/78 
f 70/70/70 71/71/71 73/73/73 
f 72/72/72 68/68/68 69/69/69 

