# V 0.13

mtllib souptrim002.mtl

o souptrim002_high_1

usemtl souptrim002_0

v -0.06511770 0.00000000 1.354856
v -0.06511770 0.00000000 1.354856
v -0.06511770 0.00000000 1.354856
v -0.06511770 0.11426590 1.354856
v -0.06511770 0.11426590 1.354856
v 0.02091910 0.11426590 -1.354856
v 0.02091910 0.11426590 -1.354856
v 0.02091910 0.11426590 -1.354856
v 0.02091910 0.11426590 -1.354856
v -0.06511770 0.11426590 -1.354856
v -0.06511770 0.11426590 -1.354856
v -0.06511770 0.16180610 1.354856
v -0.06511770 0.16180610 1.354856
v -0.02995380 0.14627190 1.354856
v -0.02995380 0.14627190 1.354856
v -0.02995380 0.14627190 -1.354856
v -0.02995380 0.14627190 -1.354856
v -0.06511770 0.16180610 -1.354856
v -0.06511770 0.16180610 -1.354856
v 0.01116680 0.11312830 1.354856
v 0.01116680 0.11312830 1.354856
v 0.01116680 0.11312830 -1.354856
v 0.01116680 0.11312830 -1.354856
v 0.01116680 0.11312830 -1.354856
v 0.01116680 0.11312830 -1.354856
v 0.01116680 0.11312830 -1.354856
v -0.06514570 0.11938000 -1.354856
v -0.06514570 0.11938000 -1.354856
v 0.02091910 0.00000000 1.354856
v 0.02091910 0.00000000 1.354856
v 0.02091910 0.00000000 1.354856
v -0.06514570 0.11938000 1.354856
v -0.06514570 0.11938000 1.354856
v -0.06513230 0.11692790 -1.354856
v -0.06513230 0.11692790 -1.354856
v -0.01519470 0.11965780 1.354856
v -0.01519470 0.11965780 1.354856
v -0.01519470 0.11965780 -1.354856
v -0.01519470 0.11965780 -1.354856
v -0.06513230 0.11692790 1.354856
v -0.06513230 0.11692790 1.354856
v -0.01787790 0.11692790 1.354856
v -0.01787790 0.11692790 -1.354856
v -0.01787790 0.11692790 -1.354856
v -0.01787790 0.11692790 -1.354856
v -0.01787790 0.11692790 -1.354856
v -0.01787790 0.11692790 -1.354856
v -0.06513141 0.14108930 1.354856
v -0.06513141 0.14108930 1.354856
v -0.06513141 0.14108930 -1.354856
v -0.06513141 0.14108930 -1.354856
v -0.01661260 0.13733060 1.354856
v -0.01661260 0.13733060 1.354856
v -0.06511770 0.00000000 -1.354856
v -0.06511770 0.00000000 -1.354856
v -0.06511770 0.00000000 -1.354856
v -0.01661260 0.13733060 -1.354856
v -0.01661260 0.13733060 -1.354856
v -0.01661260 0.13733060 -1.354856
v -0.01661260 0.13733060 -1.354856
v -0.01661260 0.13733060 -1.354856
v 0.02091910 0.00000000 -1.354856
v 0.02091910 0.00000000 -1.354856
v 0.02091910 0.00000000 -1.354856
v 0.02091910 0.00000000 -1.354856
v -0.06511770 0.17123900 1.354856
v -0.06511770 0.17123900 1.354856
v -0.06511770 0.17123900 1.354856
v -0.03256770 0.17123900 1.354856
v -0.03256770 0.17123900 1.354856
v -0.03256770 0.17123900 1.354856
v -0.06511770 0.17123900 -1.354856
v -0.06511770 0.17123900 -1.354856
v -0.06511770 0.17123900 -1.354856
v -0.03256770 0.17123900 -1.354856
v -0.03256770 0.17123900 -1.354856
v -0.03256770 0.17123900 -1.354856
v 0.02091910 0.11426590 1.354856
v 0.02091910 0.11426590 1.354856

vn 0.00000000 -0.99999980 -0.0
vn 0.00000000 -0.00000090 1.0
vn -1.00000000 0.00000000 -0.0
vn -0.00000070 -0.00000090 1.0
vn -0.99999620 -0.00273690 -0.0
vn 0.66487940 0.74695070 -0.0
vn 0.00000000 -0.00000800 -1.0
vn 0.00000000 -0.00000800 -1.0
vn 0.00000000 -0.00000800 -1.0
vn -0.00000070 -0.00000090 -1.0
vn -0.99999620 -0.00273680 -0.0
vn 0.00000000 0.00000000 1.0
vn -0.99999980 0.00032990 -0.0
vn -0.00000080 0.00000550 1.0
vn 0.85650660 0.51613590 -0.0
vn 0.85650590 0.51613710 -0.0
vn 0.00000090 0.00000830 -1.0
vn 0.00000080 0.00000180 -1.0
vn -1.00000000 0.00032990 -0.0
vn -0.00000030 -0.00009580 -0.9999998
vn 0.06329719 0.99799470 -0.0
vn 0.06329590 0.99799470 -0.0
vn 0.00000000 -0.00009590 0.9999998
vn 0.00000000 -0.00009590 0.9999998
vn 0.00000000 -0.00009590 0.9999998
vn 0.00000000 -0.00009590 0.9999998
vn -0.00000090 -0.00001740 -1.0
vn -0.99999710 -0.00240610 -0.0
vn 0.99999980 0.00000000 -0.0
vn 0.00000000 -1.00000000 -0.0
vn 0.00000000 -0.00000090 1.0
vn -0.99999710 -0.00240610 -0.0
vn 0.00000010 0.00000240 1.0
vn -0.00000170 -0.00002080 -0.9999998
vn -0.99998500 -0.00547280 -0.0
vn -0.00002430 -0.00001290 1.0
vn 0.76224130 0.64729290 -0.0
vn 0.76223890 0.64729580 -0.0
vn -0.00000280 0.00000270 -1.0
vn -0.00000060 0.00000040 0.9999998
vn -0.99998500 -0.00547280 -0.0
vn -0.00000600 0.00000890 1.0
vn -0.00000160 -0.00000630 -1.0
vn -0.00000160 -0.00000630 -1.0
vn -0.00000160 -0.00000630 -1.0
vn -0.00000160 -0.00000630 -1.0
vn -0.00000160 -0.00000630 -1.0
vn -0.99999980 0.00065970 -0.0
vn -0.00000030 0.00000230 1.0
vn 0.00000120 0.00000530 -1.0
vn -0.99999980 0.00065970 -0.0
vn -0.00000430 0.00000240 1.0
vn 0.86270310 0.50571070 -0.0
vn 0.00000000 -0.00000090 -1.0
vn 0.00000000 -1.00000000 -0.0
vn -0.99999980 0.00000000 -0.0
vn 0.00000020 0.00000670 -1.0
vn 0.86270330 0.50571030 -0.0
vn 0.00000020 0.00000670 -1.0
vn 0.00000020 0.00000670 -1.0
vn 0.86270330 0.50571030 -0.0
vn 0.00000000 -0.99999980 -0.0
vn 0.00000000 -0.00000090 -1.0
vn 1.00000000 0.00000000 -0.0
vn 0.00000000 -0.99999980 -0.0
vn 0.00000000 0.00000000 1.0
vn -0.99999980 0.00000000 -0.0
vn 0.00000000 1.00000000 -0.0
vn 0.00000000 0.00000000 0.9999998
vn 0.99456430 0.10412450 -0.0
vn 0.00000000 1.00000000 -0.0
vn 0.00000000 0.00000000 -1.0
vn -1.00000000 0.00000000 -0.0
vn 0.00000000 1.00000000 -0.0
vn 0.99456440 0.10412450 -0.0
vn 0.00000000 0.00000000 -0.9999998
vn 0.00000000 1.00000000 -0.0
vn 0.00000000 -0.00000800 1.0
vn 0.66488050 0.74694990 -0.0

vt 3.71212400 0.9912839
vt 3.71212400 0.9912839
vt 3.71212400 0.9912839
vt 3.71212400 1.6702053000000001
vt 3.71212400 1.6702053000000001
vt 7.46210000 1.6702053000000001
vt -0.03790010 1.6702053000000001
vt -0.03790010 1.6702053000000001
vt -0.03790010 1.6702053000000001
vt 0.03787510 1.6702053000000001
vt 0.03787510 1.6702053000000001
vt 3.71212400 1.9526694
vt 3.71212400 1.9526694
vt 3.74309200 1.8603714
vt 3.74309200 1.8603714
vt 0.00690760 1.8603714
vt 0.00690760 1.8603714
vt 0.03787510 1.9526694
vt 0.03787510 1.9526694
vt 3.77931400 1.6634462
vt 3.77931400 1.6634462
vt 7.47068500 1.6634462
vt 7.47068500 1.6634462
vt -0.02931480 1.6634462
vt -0.02931480 1.6634462
vt -0.02931480 1.6634462
vt 0.03789990 1.7005908
vt 0.03789990 1.7005908
vt 3.78789900 0.9912839
vt 3.78789900 0.9912839
vt 3.78789900 0.9912839
vt 3.71210000 1.7005908
vt 3.71210000 1.7005908
vt 0.03788790 1.6860217
vt 0.03788790 1.6860217
vt 3.75609500 1.7022412
vt 3.75609500 1.7022412
vt 7.49390400 1.7022412
vt 7.49390400 1.7022412
vt 3.71211200 1.6860217
vt 3.71211200 1.6860217
vt 3.75373100 1.6860217
vt 7.49626800 1.6860217
vt -0.00373230 1.6860217
vt -0.00373230 1.6860217
vt -0.00373230 1.6860217
vt -0.00373230 1.6860217
vt 3.71211200 1.8295786
vt 3.71211200 1.8295786
vt 0.03788710 1.8295786
vt 0.03788710 1.8295786
vt 3.75484600 1.8072462
vt 3.75484600 1.8072462
vt 0.03787510 0.9912839
vt 0.03787510 0.9912839
vt 0.03787510 0.9912839
vt 7.49515400 1.8072462
vt 7.49515400 1.8072462
vt -0.00484680 1.8072462
vt -0.00484680 1.8072462
vt -0.00484680 1.8072462
vt -0.03790010 0.9912839
vt -0.03790010 0.9912839
vt 7.46210000 0.9912839
vt 7.46210000 0.9912839
vt 3.71212400 2.0087159999999997
vt 3.71212400 2.0087159999999997
vt 3.71212400 2.0087159999999997
vt 3.74078900 2.0087159999999997
vt 3.74078900 2.0087159999999997
vt 3.74078900 2.0087159999999997
vt 0.03787510 2.0087159999999997
vt 0.03787510 2.0087159999999997
vt 0.03787510 2.0087159999999997
vt 0.00921020 2.0087159999999997
vt 0.00921020 2.0087159999999997
vt 0.00921020 2.0087159999999997
vt 3.78789900 1.6702053000000001
vt 3.78789900 1.6702053000000001

f 1/1/1 55/55/55 62/62/62 
f 65/65/65 30/30/30 1/1/1 
f 68/68/68 71/71/71 77/77/77 
f 77/77/77 74/74/74 68/68/68 
f 31/31/31 78/78/78 4/4/4 
f 4/4/4 2/2/2 31/31/31 
f 64/64/64 6/6/6 79/79/79 
f 79/79/79 29/29/29 64/64/64 
f 54/54/54 10/10/10 7/7/7 
f 8/8/8 63/63/63 54/54/54 
f 3/3/3 5/5/5 11/11/11 
f 11/11/11 56/56/56 3/3/3 
f 20/20/20 42/42/42 40/40/40 
f 20/20/20 40/40/40 4/4/4 
f 78/78/78 20/20/20 4/4/4 
f 22/22/22 21/21/21 79/79/79 
f 79/79/79 6/6/6 22/22/22 
f 34/34/34 44/44/44 24/24/24 
f 10/10/10 34/34/34 25/25/25 
f 10/10/10 26/26/26 9/9/9 
f 41/41/41 35/35/35 11/11/11 
f 11/11/11 5/5/5 41/41/41 
f 69/69/69 66/66/66 12/12/12 
f 12/12/12 14/14/14 69/69/69 
f 75/75/75 70/70/70 15/15/15 
f 15/15/15 16/16/16 75/75/75 
f 18/18/18 72/72/72 76/76/76 
f 76/76/76 17/17/17 18/18/18 
f 67/67/67 73/73/73 19/19/19 
f 19/19/19 13/13/13 67/67/67 
f 20/20/20 36/36/36 42/42/42 
f 38/38/38 37/37/37 21/21/21 
f 21/21/21 22/22/22 38/38/38 
f 57/57/57 39/39/39 43/43/43 
f 50/50/50 59/59/59 45/45/45 
f 27/27/27 50/50/50 46/46/46 
f 48/48/48 51/51/51 28/28/28 
f 28/28/28 32/32/32 48/48/48 
f 42/42/42 33/33/33 40/40/40 
f 34/34/34 27/27/27 47/47/47 
f 32/32/32 28/28/28 35/35/35 
f 35/35/35 41/41/41 32/32/32 
f 49/49/49 33/33/33 42/42/42 
f 52/52/52 49/49/49 42/42/42 
f 36/36/36 52/52/52 42/42/42 
f 58/58/58 53/53/53 37/37/37 
f 37/37/37 38/38/38 58/58/58 
f 39/39/39 23/23/23 43/43/43 
f 17/17/17 60/60/60 50/50/50 
f 50/50/50 18/18/18 17/17/17 
f 13/13/13 19/19/19 51/51/51 
f 51/51/51 48/48/48 13/13/13 
f 49/49/49 52/52/52 14/14/14 
f 14/14/14 12/12/12 49/49/49 
f 16/16/16 15/15/15 53/53/53 
f 53/53/53 61/61/61 16/16/16 

