# V 0.13

mtllib soupwall022.mtl

o soupwall022_high_1

usemtl soupwall022_0

v -0.07522250 -1.47287500 1.351296
v -0.07522250 -1.47287500 1.351296
v 0.07522250 -1.47287500 1.351296
v -0.07522250 -1.47287500 -1.351296
v 0.07522250 -1.47287500 -1.351296
v 0.07522250 1.47287500 -1.351295
v 0.07522250 1.47287500 -1.351295
v 0.07522250 1.47287400 1.351296
v 0.07522250 -1.47287500 1.351296
v 0.07522250 -1.47287500 -1.351296
v -0.07522250 -1.47287500 -1.351296
v 0.07522250 1.47287500 -1.351295
v -0.07522250 1.47287500 -1.351295
v -0.07522250 1.47287500 -1.351295
v 0.07522250 1.47287500 -1.351295
v 0.07522250 -1.47287500 -1.351296
v 0.07522250 -1.47287500 -1.351296
v -0.07522250 -1.47287500 -1.351296
v -0.07522250 -1.47287500 1.351296
v -0.07522250 1.47287400 1.351296
v -0.07522250 1.47287400 1.351296
v -0.07522250 1.47287500 -1.351295
v -0.07522250 1.47287500 -1.351295
v -0.07522250 -1.47287500 -1.351296
v 0.07522250 -1.47287500 -1.351296
v 0.07522250 -1.47287500 1.351296
v -0.07522250 -1.47287500 1.351296
v -0.07522250 1.47287400 1.351296
v 0.07522250 1.47287400 1.351296
v 0.07522250 1.47287500 -1.351295
v -0.07522250 1.47287400 1.351296
v -0.07522250 -1.47287500 1.351296
v 0.07522250 -1.47287500 1.351296
v 0.07522250 1.47287400 1.351296
v 0.07522250 1.47287400 1.351296
v -0.07522250 1.47287400 1.351296

vn 0.00000000 -1.00000000 -0.0
vn 0.00000000 0.00000000 1.0
vn 1.00000000 0.00000000 -0.0
vn 0.00000000 -1.00000000 -0.0
vn 1.00000000 0.00000000 -0.0
vn 1.00000000 0.00000000 -0.0
vn 1.00000000 0.00000000 -0.0
vn 1.00000000 0.00000000 -0.0
vn 1.00000000 0.00000000 -0.0
vn 0.00000000 0.00000000 -1.0
vn 0.00000000 0.00000000 -1.0
vn 0.00000000 1.00000000 -0.0
vn 0.00000000 0.00000000 -1.0
vn 0.00000000 0.00000000 -1.0
vn 0.00000000 0.00000000 -1.0
vn 0.00000000 -1.00000000 -0.0
vn 0.00000000 0.00000000 -1.0
vn -1.00000000 0.00000000 -0.0
vn -1.00000000 0.00000000 -0.0
vn -1.00000000 0.00000000 -0.0
vn -1.00000000 0.00000000 -0.0
vn -1.00000000 0.00000000 -0.0
vn 0.00000000 1.00000000 -0.0
vn -1.00000000 0.00000000 -0.0
vn 0.00000000 -1.00000000 -0.0
vn 0.00000000 -1.00000000 -0.0
vn 0.00000000 -1.00000000 -0.0
vn 0.00000000 1.00000000 -0.0
vn 0.00000000 1.00000000 -0.0
vn 0.00000000 1.00000000 -0.0
vn 0.00000000 1.00000000 -0.0
vn 0.00000000 0.00000000 1.0
vn 0.00000000 0.00000000 1.0
vn 0.00000000 0.00000000 1.0
vn 0.00000000 0.00000000 1.0
vn 0.00000000 0.00000000 1.0

vt 0.70361870 0.9887715
vt 0.29638130 0.9427714
vt -0.01122850 0.9427714
vt 0.70361700 2.011229
vt 1.01122900 0.9427714
vt 1.01122800 2.057229
vt 1.01122800 2.057229
vt -0.01122850 2.057229
vt -0.01122850 0.9427714
vt 0.29638130 0.9427714
vt 0.70361700 0.9427714
vt 0.70361870 2.011228
vt 0.70361700 2.057229
vt 0.70361700 2.057229
vt 0.29638130 2.057229
vt 0.29638130 2.011229
vt 0.29638130 0.9427714
vt -0.01122860 0.9427714
vt 1.01122900 0.9427714
vt 1.01122900 2.057229
vt 1.01122900 2.057229
vt -0.01122840 2.057229
vt 0.29638300 2.011228
vt -0.01122860 0.9427714
vt 0.29638130 2.011229
vt 0.29638300 0.9887715
vt 0.70361870 0.9887715
vt 0.29638130 0.9887715
vt 0.70361700 0.9887715
vt 0.70361870 2.011228
vt 0.29638130 0.9887715
vt 0.29638130 0.9427714
vt 0.70361700 0.9427714
vt 0.70361700 2.057229
vt 0.70361700 2.057229
vt 0.29638130 2.057229

f 1/1/1 4/4/4 16/16/16 
f 25/25/25 26/26/26 27/27/27 
f 28/28/28 29/29/29 30/30/30 
f 12/12/12 23/23/23 31/31/31 
f 32/32/32 33/33/33 34/34/34 
f 35/35/35 36/36/36 2/2/2 
f 3/3/3 5/5/5 6/6/6 
f 7/7/7 8/8/8 9/9/9 
f 10/10/10 11/11/11 13/13/13 
f 14/14/14 15/15/15 17/17/17 
f 18/18/18 19/19/19 20/20/20 
f 21/21/21 22/22/22 24/24/24 

