# V 0.13

mtllib soupwall004.mtl

o soupwall004_high_1

usemtl soupwall004_0

v -0.07522250 -1.47287500 1.351296
v -0.07522250 -1.47287500 1.351296
v 0.07522250 -1.47287500 1.351296
v -0.07522250 -1.47287500 -1.351296
v 0.07522250 -1.47287500 -1.351296
v 0.07522250 1.47287500 -1.351295
v 0.07522250 1.47287500 -1.351295
v 0.07522250 1.47287400 1.351296
v 0.07522250 -1.47287500 1.351296
v 0.07522250 -1.47287500 -1.351296
v -0.07522250 -1.47287500 -1.351296
v 0.07522250 1.47287500 -1.351295
v -0.07522250 1.47287500 -1.351295
v -0.07522250 1.47287500 -1.351295
v 0.07522250 1.47287500 -1.351295
v 0.07522250 -1.47287500 -1.351296
v 0.07522250 -1.47287500 -1.351296
v -0.07522250 -1.47287500 -1.351296
v -0.07522250 -1.47287500 1.351296
v -0.07522250 1.47287400 1.351296
v -0.07522250 1.47287400 1.351296
v -0.07522250 1.47287500 -1.351295
v -0.07522250 1.47287500 -1.351295
v -0.07522250 -1.47287500 -1.351296
v 0.07522250 -1.47287500 -1.351296
v 0.07522250 -1.47287500 1.351296
v -0.07522250 -1.47287500 1.351296
v -0.07522250 1.47287400 1.351296
v 0.07522250 1.47287400 1.351296
v 0.07522250 1.47287500 -1.351295
v -0.07522250 1.47287400 1.351296
v -0.07522250 -1.47287500 1.351296
v 0.07522250 -1.47287500 1.351296
v 0.07522250 1.47287400 1.351296
v 0.07522250 1.47287400 1.351296
v -0.07522250 1.47287400 1.351296

vn 0.00000000 -1.00000000 -0.0
vn 0.00000000 0.00000000 1.0
vn 1.00000000 0.00000000 -0.0
vn 0.00000000 -1.00000000 -0.0
vn 1.00000000 0.00000000 -0.0
vn 1.00000000 0.00000000 -0.0
vn 1.00000000 0.00000000 -0.0
vn 1.00000000 0.00000000 -0.0
vn 1.00000000 0.00000000 -0.0
vn 0.00000000 0.00000000 -1.0
vn 0.00000000 0.00000000 -1.0
vn 0.00000000 1.00000000 -0.0
vn 0.00000000 0.00000000 -1.0
vn 0.00000000 0.00000000 -1.0
vn 0.00000000 0.00000000 -1.0
vn 0.00000000 -1.00000000 -0.0
vn 0.00000000 0.00000000 -1.0
vn -1.00000000 0.00000000 -0.0
vn -1.00000000 0.00000000 -0.0
vn -1.00000000 0.00000000 -0.0
vn -1.00000000 0.00000000 -0.0
vn -1.00000000 0.00000000 -0.0
vn 0.00000000 1.00000000 -0.0
vn -1.00000000 0.00000000 -0.0
vn 0.00000000 -1.00000000 -0.0
vn 0.00000000 -1.00000000 -0.0
vn 0.00000000 -1.00000000 -0.0
vn 0.00000000 1.00000000 -0.0
vn 0.00000000 1.00000000 -0.0
vn 0.00000000 1.00000000 -0.0
vn 0.00000000 1.00000000 -0.0
vn 0.00000000 0.00000000 1.0
vn 0.00000000 0.00000000 1.0
vn 0.00000000 0.00000000 1.0
vn 0.00000000 0.00000000 1.0
vn 0.00000000 0.00000000 1.0

vt 0.85755440 1.3336853
vt 0.14244550 1.0090482
vt 0.33368530 1.0090482
vt 0.85755150 1.6663147
vt 0.66631470 1.0090482
vt 0.66631470 1.9909518
vt 0.66631470 1.9909518
vt 0.33368520 1.9909518
vt 0.33368530 1.0090482
vt 0.14244560 1.0090482
vt 0.85755150 1.0090482
vt 0.85755440 1.6663147
vt 0.85755150 1.9909518
vt 0.85755150 1.9909518
vt 0.14244560 1.9909518
vt 0.14244560 1.6663147
vt 0.14244560 1.0090482
vt 0.33368530 1.0090482
vt 0.66631470 1.0090482
vt 0.66631470 1.9909518
vt 0.66631470 1.9909518
vt 0.33368530 1.9909518
vt 0.14244860 1.6663147
vt 0.33368530 1.0090482
vt 0.14244560 1.6663147
vt 0.14244850 1.3336853
vt 0.85755440 1.3336853
vt 0.14244550 1.3336852000000001
vt 0.85755150 1.3336852000000001
vt 0.85755440 1.6663147
vt 0.14244550 1.3336852000000001
vt 0.14244550 1.0090482
vt 0.85755150 1.0090482
vt 0.85755150 1.9909518
vt 0.85755150 1.9909518
vt 0.14244550 1.9909518

f 1/1/1 4/4/4 16/16/16 
f 25/25/25 26/26/26 27/27/27 
f 28/28/28 29/29/29 30/30/30 
f 12/12/12 23/23/23 31/31/31 
f 32/32/32 33/33/33 34/34/34 
f 35/35/35 36/36/36 2/2/2 
f 3/3/3 5/5/5 6/6/6 
f 7/7/7 8/8/8 9/9/9 
f 10/10/10 11/11/11 13/13/13 
f 14/14/14 15/15/15 17/17/17 
f 18/18/18 19/19/19 20/20/20 
f 21/21/21 22/22/22 24/24/24 

