# V 0.13

mtllib soupdoorwall004.mtl

o soupdoorwall004_high_1

usemtl soupdoorwall004_0

v -0.07522250 -1.47287500 -0.6476011
v 0.07522250 0.81515940 -0.647601
v 0.07522250 -1.47287500 0.6160003
v 0.07522250 -1.47287500 1.351296
v 0.07522250 -1.47287500 1.351296
v 0.07522250 1.47287500 -1.351295
v 0.07522250 1.47287500 -1.351295
v 0.07522250 1.47287500 -1.351295
v 0.07522250 0.81515940 -0.647601
v 0.07522250 0.81515940 -0.647601
v 0.07522250 0.81515940 -0.647601
v 0.07522250 -1.47287500 -0.6476011
v -0.07522250 -1.47287500 -1.351296
v -0.07522250 -1.47287500 -1.351296
v -0.07522250 -1.47287500 1.351296
v -0.07522250 -1.47287500 0.6160003
v -0.07522250 -1.47287500 0.6160003
v -0.07522250 -1.47287500 0.6160003
v -0.07522250 -1.47287500 1.351296
v -0.07522250 -1.47287500 1.351296
v -0.07522250 1.47287500 -1.351295
v -0.07522250 1.47287400 1.351296
v 0.07522250 -1.47287500 -1.351296
v -0.07522250 1.47287400 1.351296
v -0.07522250 1.47287400 1.351296
v -0.07522250 1.47287400 1.351296
v -0.07522250 1.47287400 1.351296
v 0.07522250 -1.47287500 -1.351296
v -0.07522250 0.81515940 0.6160004
v -0.07522250 0.81515940 0.6160004
v -0.07522250 0.81515940 0.6160004
v 0.07522250 1.47287400 1.351296
v 0.07522250 1.47287400 1.351296
v 0.07522250 -1.47287500 -1.351296
v 0.07522250 -1.47287500 -1.351296
v -0.07522250 -1.47287500 -1.351296
v -0.07522250 -1.47287500 -1.351296
v -0.07522250 1.47287500 -1.351295
v 0.07522250 0.81515940 0.6160004
v 0.07522250 0.81515940 0.6160004
v 0.07522250 0.81515940 0.6160004
v 0.07522250 0.81515940 0.6160004
v -0.07522250 1.47287500 -1.351295
v -0.07522250 1.47287500 -1.351295
v -0.07522250 1.47287400 1.351296
v -0.07522250 0.81515940 -0.647601
v -0.07522250 0.81515940 -0.647601
v -0.07522250 0.81515940 -0.647601
v -0.07522250 0.81515940 -0.647601
v 0.07522250 -1.47287500 1.351296
v 0.07522250 -1.47287500 1.351296
v 0.07522250 -1.47287500 0.6160003
v -0.07522250 -1.47287500 -1.351296
v -0.07522250 -1.47287500 -1.351296
v -0.07522250 -1.47287500 -0.6476011
v -0.07522250 1.47287400 1.351296
v 0.07522250 1.47287500 -1.351295
v 0.07522250 1.47287500 -1.351295
v 0.07522250 -1.47287500 -0.6476011
v 0.07522250 -1.47287500 -0.6476011
v -0.07522250 0.81515940 -0.647601
v -0.07522250 -1.47287500 -0.6476011
v -0.07522250 -1.47287500 -0.6476011
v 0.07522250 -1.47287500 -0.6476011
v 0.07522250 0.81515940 -0.647601
v 0.07522250 0.81515940 -0.647601
v -0.07522250 0.81515940 0.6160004
v 0.07522250 0.81515940 0.6160004
v 0.07522250 -1.47287500 0.6160003
v 0.07522250 -1.47287500 0.6160003
v -0.07522250 -1.47287500 0.6160003
v -0.07522250 0.81515940 0.6160004
v -0.07522250 0.81515940 0.6160004
v 0.07522250 0.81515940 0.6160004
v 0.07522250 0.81515940 0.6160004
v 0.07522250 1.47287400 1.351296
v 0.07522250 1.47287500 -1.351295
v -0.07522250 0.81515940 -0.647601
v 0.07522250 1.47287500 -1.351295
v -0.07522250 -1.47287500 1.351296
v 0.07522250 -1.47287500 1.351296
v 0.07522250 -1.47287500 1.351296
v 0.07522250 1.47287400 1.351296
v -0.07522250 0.81515940 -0.647601

vn 0.00000000 -1.00000000 -0.0
vn 0.00000000 -1.00000000 -0.0
vn 0.00000000 -1.00000000 -0.0
vn 0.00000000 -1.00000000 -0.0
vn 0.00000000 -1.00000000 -0.0
vn 1.00000000 0.00000000 -0.0
vn 1.00000000 0.00000000 -0.0
vn 1.00000000 0.00000000 -0.0
vn 1.00000000 0.00000000 -0.0
vn 1.00000000 0.00000000 -0.0
vn 1.00000000 0.00000000 -0.0
vn 1.00000000 0.00000000 -0.0
vn 0.00000000 -1.00000000 -0.0
vn 0.00000000 -1.00000000 -0.0
vn 0.00000000 -1.00000000 -0.0
vn 0.00000000 -1.00000000 -0.0
vn 0.00000000 -1.00000000 -0.0
vn -1.00000000 0.00000000 -0.0
vn -1.00000000 0.00000000 -0.0
vn -1.00000000 0.00000000 -0.0
vn 0.00000000 1.00000000 -0.0
vn 0.00000000 1.00000000 -0.0
vn 1.00000000 0.00000000 -0.0
vn 0.00000000 1.00000000 -0.0
vn -1.00000000 0.00000000 -0.0
vn -1.00000000 0.00000000 -0.0
vn -1.00000000 0.00000000 -0.0
vn 0.00000000 0.00000000 -1.0
vn -1.00000000 0.00000000 -0.0
vn -1.00000000 0.00000000 -0.0
vn -1.00000000 0.00000000 -0.0
vn 1.00000000 0.00000000 -0.0
vn 1.00000000 0.00000000 -0.0
vn 1.00000000 0.00000000 -0.0
vn 0.00000000 -1.00000000 -0.0
vn 0.00000000 0.00000000 -1.0
vn 0.00000000 0.00000000 -1.0
vn 0.00000000 0.00000000 -1.0
vn 1.00000000 0.00000000 -0.0
vn 1.00000000 0.00000000 -0.0
vn 1.00000000 0.00000000 -0.0
vn 1.00000000 0.00000000 -0.0
vn -1.00000000 0.00000000 -0.0
vn -1.00000000 0.00000000 -0.0
vn 0.00000000 0.00000000 1.0
vn -1.00000000 0.00000000 -0.0
vn -1.00000000 0.00000000 -0.0
vn -1.00000000 0.00000000 -0.0
vn -1.00000000 0.00000000 -0.0
vn 1.00000000 0.00000000 -0.0
vn 1.00000000 0.00000000 -0.0
vn 1.00000000 0.00000000 -0.0
vn -1.00000000 0.00000000 -0.0
vn -1.00000000 0.00000000 -0.0
vn -1.00000000 0.00000000 -0.0
vn 0.00000000 0.00000000 1.0
vn 0.00000000 0.00000000 -1.0
vn 0.00000000 0.00000000 -1.0
vn 0.00000000 -1.00000000 -0.0
vn 0.00000000 -1.00000000 -0.0
vn 0.00000000 0.00000000 1.0
vn 0.00000000 0.00000000 1.0
vn 0.00000000 0.00000000 1.0
vn 0.00000000 0.00000000 1.0
vn 0.00000000 0.00000000 1.0
vn 0.00000000 0.00000000 1.0
vn 0.00000000 -1.00000000 -0.0
vn 0.00000000 0.00000000 -1.0
vn 0.00000000 0.00000000 -1.0
vn 0.00000000 0.00000000 -1.0
vn 0.00000000 0.00000000 -1.0
vn 0.00000000 0.00000000 -1.0
vn 0.00000000 0.00000000 -1.0
vn 0.00000000 -1.00000000 -0.0
vn 0.00000000 -1.00000000 -0.0
vn 0.00000000 1.00000000 -0.0
vn 0.00000000 1.00000000 -0.0
vn 0.00000000 -1.00000000 -0.0
vn 0.00000000 1.00000000 -0.0
vn 0.00000000 0.00000000 1.0
vn 0.00000000 0.00000000 1.0
vn 0.00000000 0.00000000 1.0
vn 0.00000000 0.00000000 1.0
vn 0.00000000 -1.00000000 -0.0

vt 0.85755210 1.5797054
vt 0.14244630 1.5797054
vt 0.14244780 1.4241839
vt 0.14244850 1.3336853
vt 0.14244850 1.3336853
vt 0.66631470 1.9909518
vt 0.66631470 1.9909518
vt 0.66631470 1.9909518
vt 0.57970540 1.7717162
vt 0.57970540 1.7717162
vt 0.57970540 1.7717162
vt 0.57970540 1.0090482
vt 0.85755150 1.6663147
vt 0.85755150 1.6663147
vt 0.85755440 1.3336853
vt 0.85755370 1.4241839
vt 0.85755370 1.4241839
vt 0.57581600 1.0090482
vt 0.66631470 1.0090482
vt 0.66631470 1.0090482
vt 0.14244860 1.6663147
vt 0.14244550 1.3336852000000001
vt 0.66631470 1.0090482
vt 0.14244550 1.3336852000000001
vt 0.66631470 1.9909518
vt 0.66631470 1.9909518
vt 0.66631470 1.9909518
vt 0.14244560 1.0090482
vt 0.57581600 1.7717162
vt 0.57581600 1.7717162
vt 0.57581600 1.7717162
vt 0.33368520 1.9909518
vt 0.33368520 1.9909518
vt 0.66631470 1.0090482
vt 0.14244560 1.6663147
vt 0.85755150 1.0090482
vt 0.85755150 1.0090482
vt 0.85755150 1.9909518
vt 0.42418390 1.7717162
vt 0.42418390 1.7717162
vt 0.42418390 1.7717162
vt 0.42418390 1.7717162
vt 0.33368530 1.9909518
vt 0.33368530 1.9909518
vt 0.14244550 1.9909518
vt 0.42029460 1.7717162
vt 0.42029460 1.7717162
vt 0.42029460 1.7717162
vt 0.42029460 1.7717162
vt 0.33368530 1.0090482
vt 0.33368530 1.0090482
vt 0.42418390 1.0090482
vt 0.33368530 1.0090482
vt 0.33368530 1.0090482
vt 0.42029460 1.0090482
vt 0.14244550 1.9909518
vt 0.14244560 1.9909518
vt 0.14244560 1.9909518
vt 0.14244630 1.5797054
vt 0.14244630 1.5797054
vt 0.14244780 1.7717162
vt 0.14244780 1.0090482
vt 0.14244780 1.0090482
vt 0.85755370 1.0090482
vt 0.85755370 1.7717162
vt 0.85755370 1.7717162
vt 0.85755370 1.4241839
vt 0.14244770 1.7717162
vt 0.14244780 1.0090482
vt 0.14244780 1.0090482
vt 0.85755370 1.0090482
vt 0.85755370 1.7717162
vt 0.85755370 1.7717162
vt 0.14244770 1.4241839
vt 0.14244770 1.4241839
vt 0.85755150 1.3336852000000001
vt 0.85755440 1.6663147
vt 0.85755210 1.5797054
vt 0.85755440 1.6663147
vt 0.14244550 1.0090482
vt 0.85755150 1.0090482
vt 0.85755150 1.0090482
vt 0.85755150 1.9909518
vt 0.85755210 1.5797054

f 77/77/77 21/21/21 24/24/24 
f 22/22/22 76/76/76 79/79/79 
f 81/81/81 83/83/83 56/56/56 
f 45/45/45 80/80/80 82/82/82 
f 37/37/37 38/38/38 58/58/58 
f 57/57/57 28/28/28 36/36/36 
f 14/14/14 35/35/35 60/60/60 
f 59/59/59 1/1/1 13/13/13 
f 5/5/5 15/15/15 17/17/17 
f 16/16/16 3/3/3 4/4/4 
f 34/34/34 7/7/7 10/10/10 
f 11/11/11 12/12/12 23/23/23 
f 20/20/20 26/26/26 30/30/30 
f 31/31/31 18/18/18 19/19/19 
f 8/8/8 33/33/33 40/40/40 
f 41/41/41 9/9/9 6/6/6 
f 27/27/27 44/44/44 47/47/47 
f 48/48/48 29/29/29 25/25/25 
f 51/51/51 52/52/52 42/42/42 
f 39/39/39 32/32/32 50/50/50 
f 54/54/54 55/55/55 49/49/49 
f 46/46/46 43/43/43 53/53/53 
f 63/63/63 64/64/64 66/66/66 
f 65/65/65 61/61/61 62/62/62 
f 84/84/84 2/2/2 75/75/75 
f 74/74/74 67/67/67 78/78/78 
f 70/70/70 71/71/71 73/73/73 
f 72/72/72 68/68/68 69/69/69 

